<svg width="36" height="60" viewBox="0 0 36 60" fill="none" xmlns="http://www.w3.org/2000/svg">
<path d="M34.9716 45.5882C34.9716 44.0046 34.0029 42.643 32.6272 42.0647C32.906 41.5347 33.0639 40.9314 33.0639 40.2921C33.0639 38.1859 31.3503 36.4723 29.2438 36.4723H24.1635V29.9836C30.7212 28.2843 35.5782 22.316 35.5782 15.2343C35.5782 6.83413 28.7442 0 20.3438 0C18.2448 0 16.2099 0.420234 14.2958 1.2491C13.7019 1.50621 13.429 2.19621 13.6861 2.79011C13.9432 3.38402 14.6335 3.65718 15.2271 3.39984C16.8454 2.69906 18.567 2.34375 20.3438 2.34375C27.4517 2.34375 33.2344 8.12647 33.2344 15.2343C33.2344 22.3422 27.4517 28.1249 20.3438 28.1249C13.236 28.1249 7.45311 22.3422 7.45311 15.2343C7.45311 13.457 7.80854 11.7354 8.50955 10.117C8.76678 9.52311 8.49397 8.83311 7.90006 8.57588C7.30651 8.31866 6.61616 8.59147 6.35905 9.18549C5.52983 11.0995 5.10937 13.1347 5.10937 15.2343C5.10937 22.316 9.96631 28.2842 16.5239 29.9836V35.2795H16.3296C12.8982 35.2795 9.63936 36.7046 7.30393 39.2079H1.59375C1.28285 39.2079 0.984726 39.3314 0.764883 39.5514C0.545157 39.7712 0.421641 40.0695 0.421875 40.3805L0.430078 54.9002C0.43043 55.5472 0.95496 56.0714 1.60195 56.0714H7.31003C9.65166 58.5749 12.9083 59.9999 16.3296 59.9999L28.3413 60C30.4476 60 32.1612 58.2864 32.1612 56.18C32.1612 55.526 31.9961 54.9101 31.7052 54.3713C33.0366 53.7738 33.9661 52.4354 33.9661 50.8841C33.9661 50.0903 33.7227 49.3522 33.3067 48.7406C34.3113 48.0519 34.9716 46.8956 34.9716 45.5882ZM20.3438 30.4687C20.8418 30.4687 21.3341 30.4438 21.8199 30.397V36.4723H18.8677V36.4513V30.397C19.3535 30.444 19.8458 30.4687 20.3438 30.4687ZM31.1517 47.0645H30.1465C29.4994 47.0645 28.9747 47.5892 28.9747 48.2364C28.9747 48.8836 29.4994 49.4083 30.1465 49.4083C30.9603 49.4083 31.6224 50.0704 31.6224 50.8842C31.6224 51.6981 30.9604 52.3603 30.1465 52.3603H28.3413C27.6942 52.3603 27.1694 52.885 27.1694 53.5322C27.1694 54.1793 27.694 54.7041 28.3413 54.7041C29.1553 54.7041 29.8175 55.3663 29.8175 56.1803C29.8175 56.9943 29.1554 57.6565 28.3413 57.6565L16.3296 57.6561C13.4114 57.6561 10.6391 56.3735 8.72365 54.1372C8.50112 53.8773 8.17592 53.7277 7.83362 53.7277H2.77324L2.76632 41.5517H7.82834C8.17135 41.5517 8.49701 41.4014 8.71967 41.1406C10.6276 38.9052 13.4013 37.6231 16.3295 37.6231H16.5238V37.6441C16.5238 38.2913 17.0485 38.8159 17.6956 38.8159H29.2437C30.0577 38.8159 30.7201 39.478 30.7201 40.292C30.7201 41.106 30.0578 41.7682 29.2437 41.7682C28.5966 41.7682 28.0719 42.2929 28.0719 42.9401C28.0719 43.5873 28.5966 44.112 29.2437 44.112H31.1515C31.9655 44.112 32.6278 44.7742 32.6278 45.5881C32.6279 46.4022 31.9658 47.0645 31.1517 47.0645Z" fill="#33475B"/>
<path d="M16.5157 20.5802C17.2011 21.2655 18.1012 21.6082 19.0015 21.6082C19.9017 21.6082 20.8018 21.2655 21.4872 20.5802L27.2074 14.86C28.578 13.4894 28.578 11.2591 27.2074 9.88848C25.8367 8.51797 23.6066 8.51797 22.2358 9.88848L19.0015 13.1229L18.4519 12.5732C17.0811 11.2027 14.851 11.2027 13.4803 12.5732C12.8163 13.2372 12.4507 14.12 12.4507 15.059C12.4507 15.998 12.8163 16.8808 13.4803 17.5448L16.5157 20.5802ZM15.1376 14.2306C15.366 14.0022 15.666 13.8881 15.966 13.8881C16.266 13.8881 16.5661 14.0023 16.7944 14.2306L18.1727 15.6089C18.6304 16.0665 19.3722 16.0665 19.8301 15.6089L23.8931 11.5459C24.3499 11.0891 25.0931 11.0891 25.55 11.5459C25.7714 11.7671 25.8933 12.0614 25.8933 12.3743C25.8933 12.6871 25.7714 12.9814 25.55 13.2027L19.8299 18.9228C19.3731 19.3796 18.6299 19.3796 18.173 18.9228L15.1376 15.8874C14.9162 15.6662 14.7943 15.372 14.7943 15.059C14.7943 14.746 14.9162 14.4519 15.1376 14.2306Z" fill="#33475B"/>
<path d="M10.4004 6.462C10.7005 6.462 11.0007 6.34751 11.2295 6.11864C11.6871 5.66103 11.6871 4.91899 11.2295 4.46138C10.7718 4.00376 10.03 4.00376 9.57214 4.46138L9.57155 4.46196C9.11394 4.91958 9.11429 5.66126 9.5719 6.11888C9.80077 6.34763 10.1007 6.462 10.4004 6.462Z" fill="#33475B"/>
</svg>
