<svg width="60" height="60" viewBox="0 0 60 60" fill="none" xmlns="http://www.w3.org/2000/svg">
<path d="M29.9998 41.9087C26.9709 41.9087 24.5068 39.4446 24.5068 36.4158C24.5068 33.387 26.9709 30.9229 29.9998 30.9229C33.0286 30.9229 35.4927 33.387 35.4927 36.4158C35.4927 39.4446 33.0286 41.9087 29.9998 41.9087ZM29.9998 33.2667C28.2633 33.2667 26.8506 34.6794 26.8506 36.4159C26.8506 38.1523 28.2633 39.5651 29.9998 39.5651C31.7361 39.5651 33.1489 38.1524 33.1489 36.4159C33.1489 34.6794 31.7361 33.2667 29.9998 33.2667Z" fill="#33475B"/>
<path d="M37.1001 29.2523C36.2926 29.2746 35.6856 28.3702 36.0172 27.6316C36.5189 26.4582 38.2574 26.8051 38.2719 28.0804C38.2837 28.7097 37.729 29.2629 37.1001 29.2523Z" fill="#33475B"/>
<path d="M56.2466 3.88728C54.5861 3.88728 53.1739 4.97126 52.6806 6.4688H35.0382C34.2636 4.44017 32.2973 2.99536 29.9998 2.99536C27.7023 2.99536 25.736 4.44005 24.9614 6.4688H7.31941C6.82605 4.97126 5.41395 3.88728 3.7534 3.88728C1.68375 3.88728 0 5.57103 0 7.64067C0 9.71021 1.68375 11.3941 3.7534 11.3941C5.41395 11.3941 6.82605 10.3101 7.31941 8.81255H13.997C13.2343 9.3147 12.5139 9.89337 11.8455 10.5445C9.20824 13.114 7.67648 16.5236 7.51687 20.167C5.77547 20.6702 4.49824 22.2788 4.49824 24.1803C4.49824 26.4833 6.37184 28.357 8.6748 28.357C10.9778 28.357 12.8515 26.4834 12.8515 24.1803C12.8515 22.2898 11.589 20.6888 9.86285 20.1758C10.1909 13.8841 15.5013 8.81255 21.8324 8.81255H24.626C24.8441 11.5864 27.171 13.7767 29.9999 13.7767C32.8288 13.7767 35.1557 11.5864 35.3739 8.81255H38.1674C44.4922 8.81255 49.8079 13.8857 50.1367 20.174C48.4075 20.685 47.1421 22.2876 47.1421 24.1803C47.1421 26.4833 49.0157 28.357 51.3188 28.357C53.6217 28.357 55.4954 26.4834 55.4954 24.1803C55.4954 22.2811 54.2212 20.674 52.4829 20.1687C52.3235 16.519 50.7868 13.1038 48.1429 10.5333C47.4777 9.88669 46.761 9.31177 46.0025 8.81243H52.6806C53.1739 10.31 54.5861 11.394 56.2466 11.394C58.3162 11.3941 60 9.71021 60 7.64067C60 5.57103 58.3162 3.88728 56.2466 3.88728ZM3.7534 9.05032C2.97609 9.05032 2.34375 8.41798 2.34375 7.64067C2.34375 6.86337 2.97609 6.23103 3.7534 6.23103C4.5307 6.23103 5.16305 6.86337 5.16305 7.64067C5.16305 8.41798 4.5307 9.05032 3.7534 9.05032ZM10.5077 24.1803C10.5077 25.1909 9.68555 26.0132 8.6748 26.0132C7.66418 26.0132 6.84199 25.191 6.84199 24.1803C6.84199 23.1695 7.66418 22.3474 8.6748 22.3474C9.68555 22.3474 10.5077 23.1695 10.5077 24.1803ZM29.9998 11.433C28.3198 11.433 26.9529 10.0661 26.9529 8.3861C26.9529 6.70599 28.3198 5.33923 29.9998 5.33923C31.6799 5.33923 33.0468 6.7061 33.0468 8.3861C33.0468 10.0661 31.6799 11.433 29.9998 11.433ZM53.1516 24.1803C53.1516 25.1909 52.3293 26.0132 51.3186 26.0132C50.308 26.0132 49.4857 25.191 49.4857 24.1803C49.4857 23.1695 50.308 22.3474 51.3186 22.3474C52.3293 22.3474 53.1516 23.1695 53.1516 24.1803ZM56.2466 9.05032C55.4693 9.05032 54.8371 8.41798 54.8371 7.64067C54.8371 6.86337 55.4693 6.23103 56.2466 6.23103C57.0239 6.23103 57.6562 6.86337 57.6562 7.64067C57.6562 8.41798 57.0238 9.05032 56.2466 9.05032Z" fill="#33475B"/>
<path d="M40.3107 31.5355C40.0018 30.9666 39.2905 30.7562 38.7216 31.0651C38.1528 31.374 37.9423 32.0854 38.2512 32.6542L39.649 35.2273C40.309 36.4422 40.3226 37.9 39.6857 39.1271L36.3453 45.5626H23.6546L20.3141 39.1272C19.6772 37.9001 19.6909 36.4422 20.3508 35.2275L28.8281 19.6218V26.8427C28.8281 27.4899 29.3528 28.0146 30 28.0146C30.6471 28.0146 31.1719 27.4899 31.1719 26.8427V19.6219L33.5371 23.9758C33.846 24.5446 34.5573 24.7551 35.1262 24.4462C35.695 24.1373 35.9055 23.4257 35.5966 22.857L32.3082 16.8037C32.1032 16.4262 31.7081 16.1912 31.2785 16.1912H28.7217C28.2922 16.1912 27.8969 16.4261 27.692 16.8037L18.2913 34.1087C17.2595 36.0084 17.238 38.2882 18.234 40.2069L21.0142 45.5627H20.688C20.0408 45.5627 19.5162 46.0873 19.5162 46.7346C19.5162 47.3818 20.0408 47.9064 20.688 47.9064H21.4412L19.5319 55.5487C19.4443 55.8987 19.5231 56.2696 19.7452 56.5541C19.9672 56.8385 20.308 57.0046 20.6688 57.0046H39.331C39.6919 57.0046 40.0325 56.8385 40.2547 56.5541C40.4768 56.2696 40.5554 55.8989 40.468 55.5487L38.5587 47.9064H39.3121C39.9592 47.9064 40.4839 47.3818 40.4839 46.7346C40.4839 46.0873 39.9592 45.5627 39.3121 45.5627H38.986L41.7661 40.2069C42.7622 38.288 42.7407 36.0083 41.7088 34.1084L40.3107 31.5355ZM37.8302 54.661H22.1693L23.8569 47.9066H36.1426L37.8302 54.661Z" fill="#33475B"/>
</svg>
