<svg width="52" height="42" viewBox="0 0 52 42" fill="none" xmlns="http://www.w3.org/2000/svg">
<g clip-path="url(#clip0)">
<path d="M25.9779 41.9891C19.0571 41.9891 12.1363 41.9891 5.2155 41.9891C2.18143 41.9891 0 39.8677 0 36.8607C0 26.2869 0 15.6912 0.0110733 5.10648C0.0110733 2.09945 2.18143 0 5.23765 0C19.0792 0 32.9208 0 46.7513 0C49.8407 0 51.9889 2.12132 51.9889 5.20489C52 13.384 51.9889 21.5631 51.9889 29.7532C51.9889 32.0713 51.9889 34.3785 51.9889 36.6967C51.9889 39.9224 49.885 42 46.6184 42C39.7419 41.9891 32.8654 41.9891 25.9779 41.9891ZM2.39182 11.6017C2.39182 11.8422 2.39182 12.0172 2.39182 12.2031C2.39182 20.4041 2.39182 28.6051 2.39182 36.806C2.39182 38.6321 3.45485 39.6709 5.32623 39.6709C19.1124 39.6709 32.8986 39.6709 46.6848 39.6709C48.5784 39.6709 49.6192 38.6321 49.6192 36.7514C49.6192 27.8178 49.6192 18.8951 49.6192 9.96147C49.6192 9.76464 49.5971 9.57876 49.5971 9.36006C49.4199 9.34913 49.2981 9.33819 49.1652 9.33819C42.0451 9.33819 34.914 9.33819 27.7939 9.34913C27.5392 9.34913 27.2845 9.41474 27.052 9.50221C25.3799 10.1255 23.7189 10.7816 22.0468 11.3939C21.6925 11.5251 21.2939 11.6017 20.9174 11.6017C16.3441 11.6126 11.7598 11.6126 7.18654 11.6126C5.61414 11.6017 4.05281 11.6017 2.39182 11.6017ZM49.6192 6.99818C49.6192 6.39677 49.586 5.85004 49.6303 5.31424C49.7632 3.45535 48.3901 2.30721 46.5962 2.30721C36.6192 2.34002 26.6422 2.31815 16.6542 2.32908C12.9114 2.32908 9.16865 2.37282 5.42589 2.31815C3.63203 2.29628 2.28109 3.45535 2.39182 5.33611C2.45826 6.44051 2.4029 7.55585 2.4029 8.67118C2.4029 8.868 2.42504 9.05389 2.43612 9.26165C2.62436 9.27258 2.74617 9.28352 2.86797 9.28352C8.80324 9.28352 14.7496 9.28352 20.6848 9.27259C20.9506 9.27259 21.2274 9.19604 21.4821 9.09763C23.0988 8.48529 24.7044 7.85108 26.3322 7.24967C26.753 7.09659 27.2181 7.00911 27.6721 7.00911C34.7036 6.99818 41.7462 6.99818 48.7998 6.99818C49.0545 6.99818 49.3092 6.99818 49.6192 6.99818Z" fill="#33475B"/>
<path d="M30.7283 17.6048C30.684 17.7469 30.6176 17.9984 30.5179 18.228C28.2368 23.4986 25.9557 28.7581 23.6636 34.0286C23.3314 34.7941 22.8109 35.1221 22.1908 34.969C21.4378 34.7831 21.0946 34.0614 21.4157 33.2851C22.0136 31.8745 22.6227 30.4749 23.2317 29.0643C24.937 25.1388 26.6423 21.2132 28.3476 17.2767C28.6908 16.4894 29.2223 16.1833 29.8867 16.391C30.385 16.5441 30.7283 16.9924 30.7283 17.6048Z" fill="#33475B"/>
<path d="M17.7726 18.5015C18.1601 18.8076 18.5366 18.9935 18.7581 19.3106C19.057 19.7371 18.9352 20.2182 18.603 20.6228C17.6286 21.8365 16.6431 23.0393 15.6686 24.2531C15.414 24.5702 15.1925 24.9092 14.9046 25.1825C14.5059 25.5543 14.6167 25.8058 14.9267 26.1776C16.1559 27.6538 17.3518 29.1518 18.5698 30.6498C18.9242 31.0872 19.046 31.5465 18.7691 32.0604C18.3484 32.8258 17.3628 32.8696 16.7427 32.1151C15.7683 30.9451 14.8271 29.7532 13.8748 28.5723C13.3211 27.8943 12.7674 27.2054 12.2138 26.5275C11.7044 25.8933 11.6933 25.434 12.2027 24.7998C13.7197 22.9191 15.2368 21.0383 16.776 19.1794C16.9864 18.917 17.3628 18.7748 17.7726 18.5015Z" fill="#33475B"/>
<path d="M37.4717 25.6527C36.1872 24.0672 34.9359 22.5144 33.6736 20.9617C33.5628 20.8196 33.441 20.6774 33.3303 20.5353C32.9427 19.9667 33.0313 19.3215 33.5407 18.9279C34.0501 18.5342 34.7366 18.5889 35.1795 19.1028C35.8993 19.9557 36.5858 20.8305 37.2945 21.7053C38.125 22.7331 38.9555 23.7501 39.786 24.7779C40.3175 25.4449 40.3286 25.9042 39.8082 26.5493C38.3133 28.3973 36.8184 30.2452 35.3124 32.0932C34.9802 32.5087 34.5816 32.7493 34.0169 32.629C33.5628 32.5306 33.2749 32.2353 33.1421 31.8089C32.9981 31.3387 33.1864 30.9669 33.4853 30.6061C34.7366 29.0752 35.9768 27.5334 37.217 26.0026C37.2945 25.8932 37.361 25.7948 37.4717 25.6527Z" fill="#33475B"/>
<path d="M14.174 5.86096C14.163 6.49517 13.6425 6.99817 13.0113 6.99817C12.358 6.99817 11.8154 6.45144 11.8376 5.80629C11.8486 5.15021 12.3912 4.65815 13.0667 4.68002C13.7089 4.70189 14.1851 5.21582 14.174 5.86096Z" fill="#33475B"/>
<path d="M16.5656 5.80632C16.5767 5.16118 17.075 4.68005 17.7283 4.68005C18.3927 4.68005 18.9242 5.21585 18.9021 5.86099C18.891 6.48427 18.3484 6.9982 17.7283 6.9982C17.075 6.9982 16.5545 6.4624 16.5656 5.80632Z" fill="#33475B"/>
<path d="M9.4675 5.81719C9.47858 6.46233 8.92491 6.99813 8.27159 6.99813C7.64042 6.99813 7.1089 6.47327 7.09783 5.84999C7.08676 5.23765 7.6072 4.70185 8.23837 4.67998C8.90277 4.66905 9.45643 5.17204 9.4675 5.81719Z" fill="#33475B"/>
</g>
<defs>
<clipPath id="clip0">
<rect width="52" height="42" fill="white"/>
</clipPath>
</defs>
</svg>
