<svg id="Layer_1" data-name="Layer 1" xmlns="http://www.w3.org/2000/svg" viewBox="0 0 150 150"><defs><style>.cls-1,.cls-2,.cls-4,.cls-5,.cls-6{fill:none;stroke:#33475b;}.cls-1,.cls-2,.cls-4{stroke-miterlimit:10;}.cls-1,.cls-2{stroke-width:3.68px;}.cls-2,.cls-5{stroke-linecap:round;}.cls-3{fill:#33475b;}.cls-4,.cls-5,.cls-6{stroke-width:3.6px;}.cls-5,.cls-6{stroke-linejoin:round;}</style></defs><title>hubspot-theme-development</title><path class="cls-1" d="M117.7,34.55h13.58a6.3,6.3,0,0,1,6.31,6.29v80.3a6.32,6.32,0,0,1-6.31,6.31H19.56a6.32,6.32,0,0,1-6.32-6.31V40.84a6.31,6.31,0,0,1,6.32-6.29H29.7"/><line class="cls-1" x1="12.88" y1="110.06" x2="138.66" y2="110.06"/><rect class="cls-2" x="60.91" y="127.7" width="29.14" height="18.04"/><line class="cls-2" x1="51.16" y1="145.86" x2="99.99" y2="145.86"/><circle class="cls-3" cx="76" cy="118.76" r="2.21"/><path class="cls-4" d="M81.84,103.81H33.54A3.77,3.77,0,0,1,29.77,100v-87a3.77,3.77,0,0,1,3.77-3.77h80a3.77,3.77,0,0,1,3.77,3.77V60.8"/><line class="cls-4" x1="29.45" y1="19.09" x2="117.52" y2="19.09"/><polyline class="cls-5" points="52.43 26.52 46.17 30.45 52.05 34.33"/><polyline class="cls-5" points="63.7 26.52 69.96 30.45 64.09 34.33"/><line class="cls-5" x1="59.79" y1="24.93" x2="56.11" y2="36.07"/><line class="cls-5" x1="39.74" y1="27.58" x2="39.74" y2="52.41"/><line class="cls-6" x1="44.73" y1="42.11" x2="54.66" y2="42.11"/><line class="cls-6" x1="57.92" y1="42.11" x2="61.15" y2="42.11"/><line class="cls-6" x1="49.67" y1="47.19" x2="69.48" y2="47.19"/><line class="cls-6" x1="72.72" y1="47.24" x2="76.02" y2="47.24"/><line class="cls-6" x1="79.36" y1="47.24" x2="91.03" y2="47.24"/><line class="cls-6" x1="94.27" y1="47.24" x2="109" y2="47.24"/><line class="cls-6" x1="49.67" y1="52.13" x2="69.48" y2="52.13"/><line class="cls-6" x1="72.72" y1="52.18" x2="76.02" y2="52.18"/><line class="cls-6" x1="49.67" y1="56.85" x2="69.48" y2="56.85"/><line class="cls-6" x1="72.72" y1="56.9" x2="76.02" y2="56.9"/><line class="cls-6" x1="79.36" y1="52.18" x2="91.03" y2="52.18"/><line class="cls-6" x1="94.27" y1="52.18" x2="109" y2="52.18"/><rect class="cls-6" x="79.29" y="60.8" width="46.1" height="44.04" rx="4.7"/><line class="cls-6" x1="79.55" y1="69.97" x2="125.4" y2="69.97"/><line class="cls-6" x1="89.11" y1="69.91" x2="89.11" y2="104.13"/><path class="cls-6" d="M42.71,98.92l-2.38,2.27a5.68,5.68,0,0,1-8-.19l-1.1-1.15a6.19,6.19,0,0,1-1.52-2.76,6.2,6.2,0,0,0,5.66,5.82h0a4.43,4.43,0,0,0,.52,0h1.89"/><path class="cls-6" d="M43.13,79.92v-20H29.67V94.1a6.11,6.11,0,0,1,1.75-3l1.29-1.23,3.68-3.52"/><line class="cls-6" x1="29.57" y1="69.57" x2="43.33" y2="69.57"/><line class="cls-6" x1="29.57" y1="79.54" x2="43.33" y2="79.54"/><line class="cls-6" x1="29.67" y1="89.86" x2="29.57" y2="89.86"/><path class="cls-6" d="M29.67,96.74c0,.11,0,.23,0,.35a.83.83,0,0,0,0-.15h0a6.19,6.19,0,0,1,0-2.84Z"/><polyline class="cls-6" points="36.39 86.34 43.13 79.92 43.86 79.23 51.08 72.34 58.06 65.69 67.34 75.44 60.37 82.09 53.15 88.97 52.55 89.54 45.68 96.09 42.95 98.69 42.71 98.92"/><line class="cls-6" x1="51.01" y1="72.27" x2="60.5" y2="82.23"/><line class="cls-6" x1="43.79" y1="79.15" x2="53.28" y2="89.11"/><line class="cls-6" x1="36.39" y1="86.34" x2="36.33" y2="86.27"/><line class="cls-6" x1="45.82" y1="96.23" x2="45.68" y2="96.09"/><path class="cls-6" d="M29.67,95.19c0,.14,0,.28,0,.43v1.32h0v.26a5.69,5.69,0,0,0,5.66,5.71h.05l2.39,0h0l4.93,0L53,103l10,0,9.64.06.07-13.47-9.64-.05-10,0h-.53"/><line class="cls-6" x1="52.55" y1="89.54" x2="32.87" y2="89.49"/><line class="cls-6" x1="63.05" y1="89.5" x2="62.98" y2="103.26"/><line class="cls-6" x1="53.08" y1="89.45" x2="53" y2="103.2"/><polyline class="cls-6" points="42.71 98.92 42.71 99.41 42.69 102.95 42.69 103.15"/><rect class="cls-3" x="34.74" y="94.59" width="3.28" height="3.29"/><circle class="cls-3" cx="35" cy="13.95" r="1.33"/><circle class="cls-3" cx="39.28" cy="13.95" r="1.33"/><circle class="cls-3" cx="43.57" cy="13.95" r="1.33"/></svg>