<svg id="Layer_1" data-name="Layer 1" xmlns="http://www.w3.org/2000/svg" viewBox="0 0 150 150"><defs><style>.cls-1,.cls-2,.cls-4{fill:none;stroke:#33475b;stroke-miterlimit:10;}.cls-1,.cls-2{stroke-width:3.89px;}.cls-2{stroke-linecap:round;}.cls-3{fill:#33475b;}.cls-4{stroke-width:2.59px;}</style></defs><title>content-marketing</title><path class="cls-1" d="M123.68,27.43h9.76a6.67,6.67,0,0,1,6.67,6.66V119a6.67,6.67,0,0,1-6.67,6.67H15.3A6.68,6.68,0,0,1,8.62,119V34.09a6.67,6.67,0,0,1,6.68-6.66H26.05"/><line class="cls-1" x1="8.23" y1="107.28" x2="141.24" y2="107.28"/><rect class="cls-2" x="59.03" y="125.94" width="30.82" height="19.07"/><line class="cls-2" x1="48.71" y1="145.14" x2="100.35" y2="145.14"/><circle class="cls-3" cx="74.98" cy="116.48" r="2.34"/><path class="cls-1" d="M113.75,37V8.32a3.65,3.65,0,0,0-3.65-3.64H29.68a3.63,3.63,0,0,0-3.63,3.64V89.06a3.63,3.63,0,0,0,3.63,3.64H110.1a3.64,3.64,0,0,0,3.65-3.64V56.21"/><circle class="cls-3" cx="36.08" cy="11.27" r="2.04"/><circle class="cls-3" cx="42.92" cy="11.27" r="2.04"/><circle class="cls-3" cx="49.76" cy="11.27" r="2.04"/><line class="cls-1" x1="25.55" y1="18.14" x2="113.57" y2="18.14"/><rect class="cls-1" x="35.93" y="28.26" width="27.51" height="16.92" rx="0.97"/><line class="cls-1" x1="71.63" y1="29.87" x2="75.02" y2="29.87"/><line class="cls-1" x1="78.41" y1="29.87" x2="105.47" y2="29.87"/><line class="cls-1" x1="71.63" y1="36.7" x2="102.08" y2="36.7"/><line class="cls-1" x1="71.67" y1="43.4" x2="95.33" y2="43.4"/><line class="cls-1" x1="34.42" y1="55.37" x2="37.84" y2="55.37"/><line class="cls-1" x1="41.19" y1="55.35" x2="85.16" y2="55.35"/><line class="cls-1" x1="34.49" y1="62.09" x2="78.37" y2="62.09"/><line class="cls-1" x1="34.49" y1="68.88" x2="71.63" y2="68.88"/><line class="cls-1" x1="34.44" y1="75.5" x2="71.63" y2="75.5"/><line class="cls-1" x1="34.49" y1="82.24" x2="71.67" y2="82.24"/><path class="cls-1" d="M113.75,14.61H120a3.64,3.64,0,0,1,3.64,3.64V99a3.64,3.64,0,0,1-3.64,3.65H39.61A3.63,3.63,0,0,1,36,99V92.7"/><line class="cls-1" x1="123.5" y1="28.06" x2="113.75" y2="28.06"/><path class="cls-4" d="M84.25,66.52,113.76,37a.26.26,0,0,1,.38,0l9.21,9.21a.27.27,0,0,1,0,.39L93.84,76.12l-.09.06-15,6a.26.26,0,0,1-.35-.34l5.8-15.26A.24.24,0,0,1,84.25,66.52Z"/><line class="cls-4" x1="106.75" y1="43.64" x2="116.39" y2="53.28"/><line class="cls-4" x1="81.7" y1="73.37" x2="86.99" y2="78.67"/><line class="cls-4" x1="84.51" y1="66.51" x2="94.34" y2="76.34"/><line class="cls-4" x1="89.14" y1="71.41" x2="111.81" y2="48.75"/></svg>