<svg width="66" height="66" viewBox="0 0 66 66" fill="none" xmlns="http://www.w3.org/2000/svg">
<rect x="1" y="1" width="64" height="64" rx="32" fill="white" stroke="#33475B"/>
<path d="M17 15.6666H18.3333V17H17V15.6666Z" fill="#33475B"/>
<path d="M19.667 15.6666H21.0003V17H19.667V15.6666Z" fill="#33475B"/>
<path d="M22.333 15.6666H23.6663V17H22.333V15.6666Z" fill="#33475B"/>
<path d="M17.6667 30.3334H28.3333C28.5101 30.3334 28.6797 30.2631 28.8047 30.1381C28.9298 30.0131 29 29.8435 29 29.6667V23C29 22.8232 28.9298 22.6537 28.8047 22.5286C28.6797 22.4036 28.5101 22.3334 28.3333 22.3334H17.6667C17.4899 22.3334 17.3203 22.4036 17.1953 22.5286C17.0702 22.6537 17 22.8232 17 23V29.6667C17 29.8435 17.0702 30.0131 17.1953 30.1381C17.3203 30.2631 17.4899 30.3334 17.6667 30.3334ZM18.3333 23.6667H27.6667V29H18.3333V23.6667Z" fill="#33475B"/>
<path d="M34.333 23H44.9997V24.3333H34.333V23Z" fill="#33475B"/>
<path d="M31.667 25.6666H43.667V27H31.667V25.6666Z" fill="#33475B"/>
<path d="M31.667 28.3334H41.0003V29.6667H31.667V28.3334Z" fill="#33475B"/>
<path d="M19.667 33H37.0003V34.3333H19.667V33Z" fill="#33475B"/>
<path d="M17 35.6666H34.3333V37H17V35.6666Z" fill="#33475B"/>
<path d="M17 38.3334H31.6667V39.6667H17V38.3334Z" fill="#33475B"/>
<path d="M17 41H31.6667V42.3333H17V41Z" fill="#33475B"/>
<path d="M17 43.6666H31.6667V45H17V43.6666Z" fill="#33475B"/>
<path d="M17 33H18.3333V34.3333H17V33Z" fill="#33475B"/>
<path d="M49.6667 17H49V16.3333C49 15.4493 48.6488 14.6014 48.0237 13.9763C47.3986 13.3512 46.5507 13 45.6667 13H16.3333C15.4493 13 14.6014 13.3512 13.9763 13.9763C13.3512 14.6014 13 15.4493 13 16.3333V45.6667C13 46.5507 13.3512 47.3986 13.9763 48.0237C14.6014 48.6488 15.4493 49 16.3333 49H17V49.6667C17 50.5507 17.3512 51.3986 17.9763 52.0237C18.6014 52.6488 19.4493 53 20.3333 53H49.6667C50.5507 53 51.3986 52.6488 52.0237 52.0237C52.6488 51.3986 53 50.5507 53 49.6667V20.3333C53 19.4493 52.6488 18.6014 52.0237 17.9763C51.3986 17.3512 50.5507 17 49.6667 17ZM48.4733 27.36L51.3067 30.1933L49.42 32.08L46.5867 29.2467L48.4733 27.36ZM36.42 40.7667L36.9467 39.4L39.2667 41.72L37.9 42.2467L36.42 40.7667ZM36.54 42.7667L35.4933 43.1733L35.9 42.1267L36.54 42.7667ZM38.5733 39.1467L37.6333 38.2067L45.6467 30.1933L46.5867 31.1333L38.5733 39.1467ZM47.5333 32.08L48.4733 33.02L40.46 41.0333L39.52 40.0933L47.5333 32.08ZM14.3333 16.3333C14.3349 15.8034 14.5461 15.2956 14.9209 14.9209C15.2956 14.5461 15.8034 14.3349 16.3333 14.3333H45.6667C46.1966 14.3349 46.7044 14.5461 47.0791 14.9209C47.4539 15.2956 47.6651 15.8034 47.6667 16.3333V18.3333H14.3333V16.3333ZM16.3333 47.6667C15.8034 47.6651 15.2956 47.4539 14.9209 47.0791C14.5461 46.7044 14.3349 46.1966 14.3333 45.6667V19.6667H47.6667V26.2867L36.22 37.7333C36.1532 37.7996 36.101 37.8791 36.0667 37.9667L33.7133 44.0933C33.6649 44.2135 33.653 44.3452 33.6791 44.4721C33.7052 44.599 33.7681 44.7154 33.86 44.8067C33.9861 44.931 34.1562 45.0005 34.3333 45C34.4157 45.0007 34.4973 44.9848 34.5733 44.9533L40.7 42.6C40.7876 42.5657 40.8671 42.5135 40.9333 42.4467L47.6667 35.7133V45.6667C47.6651 46.1966 47.4539 46.7044 47.0791 47.0791C46.7044 47.4539 46.1966 47.6651 45.6667 47.6667H16.3333ZM51.6667 49.6667C51.6651 50.1966 51.4539 50.7044 51.0791 51.0791C50.7044 51.4539 50.1966 51.6651 49.6667 51.6667H20.3333C19.8034 51.6651 19.2956 51.4539 18.9209 51.0791C18.5461 50.7044 18.3349 50.1966 18.3333 49.6667V49H45.6667C46.5507 49 47.3986 48.6488 48.0237 48.0237C48.6488 47.3986 49 46.5507 49 45.6667V34.38L51.6667 31.7133V49.6667ZM51.6667 28.6667L49 26V23.6667H51.6667V28.6667ZM51.6667 22.3333H49V18.3333H49.6667C50.1966 18.3349 50.7044 18.5461 51.0791 18.9209C51.4539 19.2956 51.6651 19.8034 51.6667 20.3333V22.3333Z" fill="#33475B"/>
<path d="M31.667 23H33.0003V24.3333H31.667V23Z" fill="#33475B"/>
</svg>
