<svg id="Layer_1" data-name="Layer 1" xmlns="http://www.w3.org/2000/svg" viewBox="0 0 150 150"><defs><style>.cls-1,.cls-2,.cls-4,.cls-5,.cls-6,.cls-7{fill:none;stroke:#33475b;stroke-miterlimit:10;}.cls-1,.cls-2{stroke-width:4.21px;}.cls-2,.cls-5,.cls-6,.cls-7{stroke-linecap:round;}.cls-3{fill:#33475b;}.cls-4,.cls-5{stroke-width:3.5px;}.cls-6{stroke-width:2.8px;}.cls-7{stroke-width:2.1px;}</style></defs><title>social-media-marketing</title><path class="cls-1" d="M75,17.7h63.7a7.22,7.22,0,0,1,7.22,7.21v91.9a7.23,7.23,0,0,1-7.22,7.22H10.86a7.24,7.24,0,0,1-7.23-7.22V24.91a7.23,7.23,0,0,1,7.23-7.21H75"/><line class="cls-1" x1="3.21" y1="104.13" x2="147.17" y2="104.13"/><rect class="cls-2" x="58.19" y="124.32" width="33.35" height="20.64"/><line class="cls-2" x1="47.02" y1="145.1" x2="102.91" y2="145.1"/><circle class="cls-3" cx="75.46" cy="114.08" r="2.53"/><path class="cls-4" d="M21.76,55.7l21.72-5.54L62.53,35.68l10.9,42.74L49,74.62,28.05,80a1,1,0,0,1-1.2-.71c-1-3.93-4.89-18.89-5.71-22.54A.85.85,0,0,1,21.76,55.7Z"/><line class="cls-5" x1="61.96" y1="33.27" x2="62.53" y2="35.68"/><line class="cls-5" x1="73.43" y1="78.42" x2="74.01" y2="80.87"/><line class="cls-5" x1="50.08" y1="41.39" x2="59.72" y2="79.22"/><line class="cls-5" x1="43.24" y1="50.24" x2="49.4" y2="74.39"/><path class="cls-5" d="M22.14,61.14s-11.52,2.28-10.35,9,9,6.43,13.75,4.5"/><path class="cls-5" d="M26.88,54.49l1.23,4.84a2.81,2.81,0,0,0,3.41,2l4.76-1.21a2.8,2.8,0,0,0,2-3.4l-1.24-4.87"/><line class="cls-5" x1="16.45" y1="59.76" x2="21.37" y2="79.04"/><path class="cls-5" d="M32.36,78.86l5,19.77a1.68,1.68,0,0,0,2,1.21l3.66-.93a1.69,1.69,0,0,0,1.22-2L42,87.55a1.7,1.7,0,0,1,.47-1.64l2.34-2.2a1.7,1.7,0,0,0,.48-1.64L43.69,76"/><rect class="cls-6" x="85.77" y="24.61" width="23.69" height="17.93" rx="2.84"/><path class="cls-7" d="M95.19,31.15v5.56a.6.6,0,0,0,.9.52l4.78-2.79a.59.59,0,0,0,0-1l-4.78-2.79A.6.6,0,0,0,95.19,31.15Z"/><rect class="cls-7" x="115.58" y="48.4" width="20.45" height="20.63" rx="2.77"/><path class="cls-7" d="M123.74,65.19V55.76a2,2,0,0,1,2-2H130"/><line class="cls-7" x1="120.54" y1="58.9" x2="127.05" y2="58.9"/><rect class="cls-6" x="92.36" y="77.24" width="20.53" height="20.72" rx="2.77"/><circle class="cls-7" cx="102.53" cy="87.6" r="4.11"/><line class="cls-5" x1="68.76" y1="36.75" x2="76.39" y2="29.49"/><line class="cls-5" x1="87.78" y1="79.41" x2="77.85" y2="75.9"/><line class="cls-5" x1="73.62" y1="56.1" x2="83.08" y2="53.87"/></svg>