<svg width="66" height="66" viewBox="0 0 66 66" fill="none" xmlns="http://www.w3.org/2000/svg">
<rect x="1" y="1" width="64" height="64" rx="32" fill="white" stroke="#33475B"/>
<path d="M43.5446 47.377C43.1473 47.5935 42.7444 47.817 42.3364 48.0431C38.8842 49.9572 34.9713 52.1267 31.2106 51.7909L17.8924 50.602C17.8751 50.6004 17.8577 50.5996 17.8402 50.5996H14.1741V44.0088H17.8402C17.979 44.0088 18.1134 43.9595 18.2193 43.8699C18.2297 43.8612 19.2788 42.9797 20.876 42.15C21.1638 42.0006 21.2758 41.6461 21.1264 41.3584C20.9769 41.0707 20.6226 40.9585 20.3348 41.1081C18.988 41.8077 18.0111 42.5362 17.6325 42.8346H13.5871C13.2629 42.8346 13 43.0975 13 43.4217V51.1867C13 51.5109 13.2628 51.7738 13.5871 51.7738H17.814L31.1061 52.9605C31.4063 52.9873 31.7059 53.0001 32.0055 53.0001C35.8174 53.0001 39.5682 50.9206 42.9057 49.0702C43.3112 48.8454 43.7116 48.6234 44.1064 48.4081C44.3911 48.253 44.4962 47.8964 44.341 47.6117C44.186 47.3269 43.8295 47.2219 43.5446 47.377Z" fill="#33475B"/>
<path d="M52.547 40.874C51.9228 40.0466 50.8352 39.7608 49.8965 40.1538C49.8725 39.7783 49.7454 39.4125 49.5228 39.1008C48.9357 38.279 47.8197 38.0142 46.9268 38.4849L45.5306 39.2207C45.5127 38.8928 45.416 38.5702 45.2436 38.2852C44.6865 37.3644 43.5094 37.0446 42.5637 37.5572L41.5201 38.123C41.5013 37.7173 41.3639 37.3218 41.1186 36.988C40.5067 36.1552 39.3987 35.8991 38.4841 36.3788L30.9499 40.3304C30.1026 40.0051 27.4017 39.1253 24.246 39.7128C23.7016 39.8142 23.1407 39.9608 22.5789 40.1487C22.2714 40.2515 22.1054 40.5841 22.2082 40.8916C22.311 41.1991 22.6438 41.3649 22.9511 41.2623C23.4617 41.0916 23.9696 40.9587 24.4608 40.8672C27.8296 40.2399 30.7125 41.5001 30.7403 41.5125C30.816 41.5465 30.898 41.5641 30.981 41.5641H38.8232C39.3803 41.5641 39.8336 42.0187 39.8336 42.5774C39.8336 43.0867 39.4536 43.5189 38.9498 43.5827L29.0103 44.8417C28.7163 44.8789 28.4961 45.1295 28.4971 45.4258C28.4979 45.7222 28.7196 45.9714 29.0139 46.0069L33.2352 46.5157C37.3243 47.0085 41.389 46.2109 44.9901 44.209L50.2652 41.2766C50.7293 41.0348 51.2938 41.1624 51.6096 41.5811C52.0041 42.0791 51.8326 42.8777 51.2676 43.1685L45.6077 46.2529C44.931 46.6085 45.511 47.6588 46.1696 47.2839L51.8295 44.1995C52.4031 43.887 52.8112 43.3413 52.9493 42.7022C53.0875 42.0625 52.9409 41.3962 52.547 40.874ZM39.0295 37.4186C39.4262 37.2106 39.9068 37.3218 40.1725 37.6833C40.4989 38.1042 40.3507 38.772 39.8762 39.0142L37.3387 40.3899H33.3644L39.0295 37.4186ZM39.5635 40.5194L43.1233 38.5894C43.517 38.376 44.0069 38.5095 44.2389 38.8931C44.4918 39.2902 44.3336 39.8638 43.9121 40.0738L40.8244 41.7011C40.5846 41.1542 40.1278 40.7235 39.5635 40.5194ZM44.4196 43.1827C41.1905 44.9779 37.5644 45.7425 33.9008 45.4057L39.0974 44.7475C40.0614 44.6255 40.8152 43.8803 40.9757 42.9485L47.4743 39.5235C47.85 39.3255 48.32 39.437 48.5673 39.7832C48.8668 40.1811 48.7277 40.802 48.2864 41.0331L44.4196 43.1827Z" fill="#33475B"/>
<path d="M26.6709 28.9519C27.3339 28.9519 27.9718 28.8084 28.5666 28.5255C28.8595 28.3863 28.984 28.036 28.8447 27.7432C28.7055 27.4505 28.3554 27.3258 28.0623 27.4651C27.6263 27.6725 27.1581 27.7776 26.6709 27.7776C24.8817 27.7776 23.4261 26.322 23.4261 24.5329C23.4261 22.7437 24.8817 21.2882 26.6709 21.2882C28.46 21.2882 29.9156 22.7437 29.9156 24.5329C29.9156 25.0807 29.7767 25.6219 29.514 26.098C29.3573 26.3819 29.4604 26.739 29.7443 26.8956C30.0283 27.0523 30.3854 26.9491 30.542 26.6653C30.9003 26.0159 31.0898 25.2786 31.0898 24.5328C31.0898 22.0962 29.1074 20.1139 26.6709 20.1139C24.2343 20.1139 22.252 22.0962 22.252 24.5328C22.252 26.9694 24.2343 28.9519 26.6709 28.9519Z" fill="#33475B"/>
<path d="M17.5036 26.2784L18.7204 26.4613C18.919 27.2856 19.2425 28.0664 19.6858 28.7909L18.9543 29.7812C18.6087 30.2491 18.6564 30.8873 19.0679 31.2985L19.9055 32.1363C20.3168 32.5476 20.955 32.5953 21.4229 32.2497L22.4131 31.5183C23.1376 31.9616 23.9183 32.2852 24.7427 32.4838L24.9257 33.7006C25.0122 34.2759 25.4972 34.6934 26.0788 34.6934H27.2634C27.8451 34.6934 28.3301 34.2759 28.4165 33.7006L28.5994 32.4838C29.4238 32.2852 30.2045 31.9616 30.929 31.5183L31.9193 32.2498C32.3872 32.5953 33.0254 32.5477 33.4366 32.1363L34.2743 31.2987C34.6857 30.8874 34.7334 30.2492 34.3878 29.7813L33.6564 28.7911C34.0997 28.0666 34.4233 27.2859 34.6218 26.4615L35.8386 26.2786C36.4138 26.1921 36.8314 25.7072 36.8314 25.1254V25.1201H40.3154V32.6031C40.3154 33.358 40.9297 33.9722 41.6846 33.9722H44.1927C44.4612 35.1689 45.5315 36.066 46.8081 36.066C48.2864 36.066 49.4891 34.8634 49.4891 33.385C49.4891 31.9067 48.2865 30.704 46.8081 30.704C45.5315 30.704 44.4611 31.6012 44.1926 32.798H41.6845C41.577 32.798 41.4896 32.7106 41.4896 32.6031V25.1201H44.1926C44.4611 26.3169 45.5315 27.2141 46.8081 27.2141C48.2864 27.2141 49.4891 26.0114 49.4891 24.5331C49.4891 23.0547 48.2865 21.852 46.8081 21.852C45.5315 21.852 44.4612 22.7491 44.1926 23.9459H41.4897V16.463C41.4897 16.3555 41.5772 16.2681 41.6847 16.2681H44.1928C44.4613 17.4649 45.5316 18.362 46.8083 18.362C48.2865 18.362 49.4893 17.1594 49.4893 15.681C49.4893 14.2027 48.2865 13 46.8082 13C45.5316 13 44.4613 13.8971 44.1927 15.0939H41.6846C40.9297 15.0939 40.3154 15.708 40.3154 16.463V23.9458H36.8314V23.9406C36.8314 23.359 36.4139 22.874 35.8386 22.7875L34.6218 22.6046C34.4232 21.7802 34.0997 20.9995 33.6564 20.275L34.3878 19.2848C34.7334 18.8169 34.6858 18.1787 34.2743 17.7674L33.4367 16.9297C33.0254 16.5184 32.3872 16.4707 31.9193 16.8163L30.9291 17.5477C30.2045 17.1044 29.4238 16.7808 28.5995 16.5822L28.4166 15.3654C28.3302 14.7902 27.8452 14.3726 27.2635 14.3726H26.0788C25.4972 14.3726 25.0122 14.7901 24.9257 15.3654L24.7427 16.5822C23.9184 16.7809 23.1377 17.1044 22.4131 17.5477L21.4229 16.8163C20.9551 16.4706 20.3168 16.5183 19.9055 16.9297L19.0679 17.7673C18.6564 18.1786 18.6087 18.8168 18.9543 19.2847L19.6857 20.2748C19.2425 20.9994 18.9189 21.7802 18.7203 22.6045L17.5035 22.7873C16.9282 22.8738 16.5107 23.3588 16.5107 23.9405V25.1251C16.5107 25.707 16.9283 26.192 17.5036 26.2784ZM46.8082 31.8781C47.639 31.8781 48.315 32.554 48.315 33.3849C48.315 34.2157 47.639 34.8917 46.8082 34.8917C45.9773 34.8917 45.3014 34.2157 45.3014 33.3849C45.3014 32.554 45.9773 31.8781 46.8082 31.8781ZM46.8082 23.0261C47.639 23.0261 48.315 23.702 48.315 24.5329C48.315 25.3638 47.639 26.0397 46.8082 26.0397C45.9773 26.0397 45.3014 25.3638 45.3014 24.5329C45.3014 23.702 45.9773 23.0261 46.8082 23.0261ZM46.8082 14.1741C47.639 14.1741 48.315 14.8501 48.315 15.6809C48.315 16.5118 47.639 17.1877 46.8082 17.1877C45.9773 17.1877 45.3014 16.5118 45.3014 15.6809C45.3014 14.8502 45.9773 14.1741 46.8082 14.1741ZM17.6849 23.9475L19.2964 23.7052C19.5436 23.6681 19.7401 23.4785 19.7861 23.2329C19.965 22.2788 20.3344 21.3876 20.8838 20.5841C21.0248 20.3778 21.0199 20.1048 20.8714 19.9038L19.9029 18.5927L20.7308 17.7648L22.042 18.7334C22.2429 18.8818 22.5158 18.8868 22.7222 18.7458C23.5257 18.1963 24.4169 17.827 25.371 17.648C25.6166 17.602 25.8061 17.4055 25.8433 17.1583L26.0856 15.5468H27.2564L27.4986 17.1583C27.5358 17.4055 27.7254 17.602 27.971 17.648C28.925 17.827 29.8163 18.1963 30.6198 18.7458C30.8261 18.8869 31.099 18.8818 31.3 18.7334L32.6112 17.7648L33.4391 18.5927L32.4707 19.9039C32.3222 20.1048 32.3172 20.3778 32.4583 20.5841C33.0077 21.3877 33.377 22.2788 33.556 23.2331C33.6021 23.4787 33.7986 23.6682 34.0457 23.7054L35.6572 23.9477V25.1184L34.0457 25.3607C33.7986 25.3978 33.6021 25.5874 33.556 25.8331C33.377 26.7873 33.0077 27.6784 32.4583 28.482C32.3172 28.6882 32.3222 28.9612 32.4707 29.1621L33.4392 30.4733L32.6113 31.3012L31.3001 30.3327C31.0992 30.1842 30.8262 30.1792 30.6199 30.3203C29.8164 30.8698 28.9252 31.2391 27.971 31.4181C27.7254 31.4641 27.5358 31.6607 27.4986 31.9078L27.2564 33.5193H26.0856L25.8433 31.9078C25.8061 31.6607 25.6166 31.4641 25.371 31.4181C24.4168 31.2391 23.5256 30.8698 22.7221 30.3203C22.5158 30.1793 22.2429 30.1842 22.0419 30.3327L20.7307 31.3012L19.9029 30.4733L20.8714 29.1621C21.0198 28.9612 21.0248 28.6881 20.8838 28.482C20.3343 27.6784 19.965 26.7873 19.7861 25.8331C19.74 25.5875 19.5436 25.3979 19.2964 25.3608L17.6849 25.1185V23.9475Z" fill="#33475B"/>
</svg>
