<svg xmlns="http://www.w3.org/2000/svg" version="1.0" width="120px" height="60px" viewBox="0 0 1500.000000 817.000000" preserveAspectRatio="xMidYMid meet">

                      <g transform="translate(0.000000,817.000000) scale(0.100000,-0.100000)" fill="#7611b6" stroke="none">
                      <path d="M7590 6576 c-83 -23 -1118 -538 -1167 -580 -24 -21 -56 -62 -71 -90 l-27 -51 -3 -651 c-3 -634 -2 -653 18 -706 36 -98 72 -124 373 -275 l272 -136 -276 -137 c-297 -149 -327 -171 -373 -269 -21 -46 -21 -53 -21 -701 l0 -655 28 -57 c15 -31 44 -71 63 -88 20 -17 287 -156 593 -310 602 -300 617 -306 720 -282 25 6 296 134 602 285 612 302 618 306 659 413 19 53 20 75 20 703 l0 648 -31 61 c-16 34 -44 73 -61 87 -18 15 -153 88 -302 162 l-271 135 270 135 c294 147 336 177 377 267 l23 51 0 655 0 655 -25 50 c-49 100 -61 107 -657 402 -305 150 -573 278 -596 283 -54 12 -82 12 -137 -4z m810 -1264 c0 -147 -3 -325 -7 -396 l-6 -129 -362 -179 -362 -178 -366 181 -367 181 0 397 0 397 367 181 366 181 369 -184 368 -184 0 -268z m-375 -1754 l365 -183 0 -396 0 -395 -368 -181 -368 -180 -367 184 -367 183 0 198 c0 110 3 288 7 397 l6 198 361 178 c199 98 362 179 363 179 2 0 167 -82 368 -182z"></path>
                      </g>
                      </svg>