<svg xmlns="http://www.w3.org/2000/svg" xmlns:xlink="http://www.w3.org/1999/xlink" version="1.1" width="60px" height="60px" viewBox="0 0 550 400" xml:space="preserve">
<desc>Created with Fabric.js 3.6.3</desc>
<defs>
</defs>
<g transform="matrix(0.94 0 0 0.94 -636.27 229.77)">
<linearGradient id="SVGID_6" gradientUnits="userSpaceOnUse" gradientTransform="matrix(0 -384.24 384.24 0 1250 386.5)" x1="0" y1="0" x2="1" y2="0">
<stop offset="0%" style="stop-color:rgb(4,182,240);stop-opacity: 1"></stop>
<stop offset="100%" style="stop-color:rgb(62,202,240);stop-opacity: 1"></stop>
</linearGradient>
<path style="stroke: none; stroke-width: 1; stroke-dasharray: none; stroke-linecap: butt; stroke-dashoffset: 0; stroke-linejoin: round; stroke-miterlimit: 1.41; fill: url(#SVGID_6); fill-rule: nonzero; opacity: 1;" transform=" translate(-1250, -245.13)" d="M 248.385 255.483 C 248.385 292.805 237.288 324.242 215.015 349.691 C 191.772 376.355 161.57 389.741 124.599 389.741 C 87.53 389.741 57.426 376.355 34.182 349.691 C 11.9 324.242 0.72 292.805 0.72 255.483 C 0.72 218.058 11.9 186.631 34.182 161.274 C 57.684 134.859 87.887 121.658 124.599 121.658 C 161.57 121.658 191.772 134.859 215.015 161.274 C 237.288 186.631 248.385 218.058 248.385 255.483 Z M 174.775 255.483 C 174.775 238.578 170.729 224.309 162.629 212.773 C 153.566 199.66 140.883 193.146 124.599 193.146 C 108.309 193.146 95.631 199.66 86.559 212.773 C 78.375 224.309 74.325 238.578 74.325 255.483 C 74.325 272.294 78.375 286.734 86.559 298.617 C 95.631 311.73 108.309 318.254 124.599 318.254 C 140.883 318.254 153.566 311.73 162.629 298.617 C 170.729 286.734 174.775 272.294 174.775 255.483 Z M 514.535 255.483 C 514.535 290.345 504.497 320.806 484.333 346.866 C 462.763 375.389 434.942 389.741 401.134 389.741 C 377.271 389.741 357.028 382.787 340.475 369.055 C 340.475 372.217 340.827 379.879 341.534 392.128 C 342.237 404.44 342.584 414.478 342.584 422.403 C 342.584 466.172 329.554 488 303.5 488 C 292.842 488 284.131 484.213 277.172 476.727 C 270.306 469.163 266.87 460.077 266.87 449.35 L 266.87 164.71 C 266.87 154.32 270.394 145.336 277.436 137.772 C 284.477 130.286 293.198 126.509 303.587 126.509 C 319.252 126.509 330.701 134.327 337.923 149.923 C 353.329 131.082 374.372 121.658 401.046 121.658 C 434.942 121.658 462.675 135.737 484.333 164.007 C 504.409 190.159 514.535 220.62 514.535 255.483 Z M 440.925 255.483 C 440.925 238.578 436.797 224.309 428.696 212.773 C 419.619 199.66 406.946 193.146 390.656 193.146 C 374.372 193.146 361.694 199.66 352.622 212.773 C 344.521 224.309 340.475 238.578 340.475 255.483 C 340.475 272.294 344.521 286.734 352.622 298.617 C 361.694 311.73 374.372 318.254 390.656 318.254 C 406.946 318.254 419.619 311.73 428.696 298.617 C 436.797 286.734 440.925 272.294 440.925 255.483 Z M 782.354 247.567 C 782.354 259.88 779.446 268.332 773.634 273.095 C 767.827 277.755 758.76 280.132 746.521 280.132 L 613.663 280.132 C 613.663 294.22 620.27 305.044 633.475 312.608 C 644.128 318.518 657.158 321.519 672.564 321.519 C 684.545 321.519 698.892 317.542 715.708 309.719 C 732.525 301.789 743.349 297.909 748.024 297.909 C 756.559 297.909 763.776 300.994 769.764 307.333 C 775.659 313.589 778.66 321.158 778.66 329.878 C 778.66 350.028 763.606 365.717 733.486 376.98 C 710.511 385.427 687.18 389.741 663.326 389.741 C 624.94 389.741 593.947 376.98 570.265 351.541 C 546.577 326.091 534.699 294.132 534.699 255.483 C 534.699 218.673 547.021 187.246 571.67 161.02 C 596.231 134.771 626.79 121.658 663.234 121.658 C 697.13 121.658 725.478 134.073 748.199 158.898 C 770.906 183.732 782.354 213.31 782.354 247.567 Z M 708.754 229.067 C 708.398 217.794 703.206 207.585 693.168 198.333 C 683.129 189.095 672.481 184.523 661.208 184.523 C 649.589 184.523 638.756 189.095 628.722 198.333 C 618.689 207.585 613.663 217.794 613.663 229.067 L 708.754 229.067 Z M 1029.66 346.241 C 1029.66 356.992 1026.23 366.054 1019.37 373.627 C 1012.41 381.118 1003.69 384.905 993.039 384.905 C 967.331 384.905 954.472 364.477 954.472 323.715 C 954.472 315.878 955.004 303.556 956.058 286.563 C 957.205 269.654 957.737 257.244 957.737 249.407 C 957.737 206.17 943.736 184.523 915.827 184.523 C 887.914 184.523 874.006 206.17 874.006 249.407 C 874.006 257.244 874.445 269.654 875.236 286.563 C 876.119 303.556 876.558 315.878 876.558 323.715 C 876.558 364.477 863.88 384.905 838.528 384.905 C 827.87 384.905 819.159 381.118 812.288 373.627 C 805.334 366.054 801.899 356.992 801.899 346.241 L 801.899 164.632 C 801.899 153.959 805.334 144.907 812.288 137.596 C 819.159 130.198 827.963 126.509 838.616 126.509 C 856.223 126.509 868.457 134.327 875.323 149.923 C 887.211 131.082 908.249 121.658 938.363 121.658 C 966.272 121.658 988.461 129.047 1004.75 143.75 C 1021.39 159.522 1029.66 181.17 1029.66 208.732 L 1029.66 346.241 Z M 1260.59 338.418 C 1260.59 355.054 1249.78 368.255 1228.11 377.951 C 1210.95 385.776 1192.3 389.798 1173.44 389.741 C 1136.36 389.741 1106.26 376.355 1083.02 349.691 C 1060.74 324.242 1049.56 292.805 1049.56 255.483 C 1049.56 218.058 1060.92 186.46 1083.72 160.572 C 1106.52 134.605 1136.36 121.658 1173.44 121.658 C 1194.83 121.658 1213.23 124.826 1228.56 131.082 C 1249.94 139.534 1260.59 152.734 1260.59 170.698 C 1260.59 179.76 1257.78 187.773 1252.14 194.732 C 1246.51 201.598 1239.28 205.121 1230.49 205.121 C 1224.49 205.121 1215.86 203.096 1204.6 199.143 C 1193.33 195.083 1184.36 193.146 1177.76 193.146 C 1160.23 193.146 1146.58 199.397 1136.81 211.894 C 1127.74 223.167 1123.16 237.607 1123.16 255.483 C 1123.16 272.294 1127.21 286.563 1135.41 298.095 C 1144.46 311.568 1157.24 318.254 1173.52 318.254 C 1180.75 318.254 1190.6 316.141 1203.19 311.817 C 1215.79 307.606 1224.86 305.405 1230.49 305.405 C 1238.68 305.405 1245.71 308.919 1251.71 315.79 C 1257.61 322.744 1260.59 330.22 1260.59 338.418 Z M 1528.15 346.241 C 1528.15 356.992 1524.72 366.054 1517.85 373.627 C 1510.9 381.118 1502.1 384.905 1491.43 384.905 C 1475.41 384.905 1463.97 377.063 1457.1 361.481 C 1441.7 380.328 1420.65 389.741 1393.98 389.741 C 1359.83 389.741 1331.83 375.389 1310.16 346.866 C 1290.44 320.806 1280.51 290.345 1280.51 255.483 C 1280.51 220.62 1290.44 190.159 1310.16 164.007 C 1332.18 135.737 1360.08 121.658 1393.98 121.658 C 1420.65 121.658 1441.7 131.082 1457.1 149.923 C 1463.97 134.327 1475.41 126.509 1491.43 126.509 C 1501.83 126.509 1510.55 130.286 1517.6 137.772 C 1524.63 145.336 1528.15 154.232 1528.15 164.632 L 1528.15 346.241 Z M 1454.55 255.483 C 1454.55 238.578 1450.51 224.309 1442.4 212.773 C 1432.98 199.66 1420.3 193.146 1404.37 193.146 C 1388.08 193.146 1375.41 199.66 1366.33 212.773 C 1358.15 224.309 1354.11 238.578 1354.11 255.483 C 1354.11 272.294 1358.05 286.734 1365.88 298.617 C 1375.23 311.73 1388.08 318.254 1404.37 318.254 C 1420.65 318.254 1433.33 311.73 1442.4 298.617 C 1450.51 286.734 1454.55 272.294 1454.55 255.483 Z M 1715.95 159.776 C 1715.95 175.534 1708.29 186.362 1692.97 192.257 C 1678.8 197.02 1664.7 201.871 1650.62 206.873 C 1635.2 215.686 1627.55 232.059 1627.55 255.834 L 1627.55 346.241 C 1627.55 356.992 1624.02 366.054 1617.17 373.627 C 1610.2 381.118 1601.4 384.905 1590.75 384.905 C 1580.02 384.905 1571.2 381.118 1564.35 373.627 C 1557.38 366.054 1553.95 356.992 1553.95 346.241 L 1553.95 164.632 C 1553.95 153.959 1557.38 144.907 1564.25 137.596 C 1571.2 130.198 1580.02 126.509 1590.67 126.509 C 1608.27 126.509 1620.5 134.327 1627.38 149.923 C 1643.14 131.082 1660.05 121.658 1678.27 121.658 C 1688.65 121.658 1697.55 125.436 1704.94 132.921 C 1712.24 140.495 1715.95 149.474 1715.95 159.776 Z M 1907.97 163.124 C 1907.97 179.496 1901.54 189.798 1888.79 194.209 C 1882.52 196.405 1869.39 197.547 1849.41 197.547 L 1849.41 346.241 C 1849.41 356.992 1845.89 366.054 1839.04 373.627 C 1832.07 381.118 1823.27 384.905 1812.62 384.905 C 1802.24 384.905 1793.42 381.118 1786.37 373.627 C 1779.34 366.054 1775.82 356.992 1775.82 346.241 L 1775.82 197.547 C 1760.67 197.547 1749.67 195.61 1742.72 191.833 C 1733.22 186.548 1728.52 176.949 1728.52 163.124 C 1728.52 149.308 1733.37 139.885 1743.14 134.859 C 1749.75 131.16 1760.67 129.232 1775.82 129.232 L 1775.82 97.712 C 1775.82 60.649 1788.04 42.163 1812.62 42.163 C 1837.09 42.163 1849.41 60.649 1849.41 97.712 L 1849.41 129.232 C 1869.39 129.232 1882.52 130.374 1888.79 132.57 C 1901.54 136.972 1907.97 147.195 1907.97 163.124 Z M 2499.28 118.418 C 2499.08 95.819 2457.32 85.561 2349.22 85.561 C 2095.58 85.561 2031.23 74.727 1962.37 2.264 C 1991.34 45.774 2007.19 127.383 2275.28 123.322 C 2554.99 119.013 2384.35 195.444 2334.7 281.796 C 2424.24 201.881 2499.01 149.206 2499.28 118.745 L 2499.28 118.418 Z M 2142.86 350.477 C 2142.85 371.483 2125.57 388.765 2104.56 388.77 C 2083.34 388.77 2066.18 371.612 2066.18 350.477 C 2066.18 350.467 2066.18 350.457 2066.18 350.447 C 2066.18 329.406 2083.49 312.091 2104.54 312.091 C 2104.55 312.091 2104.55 312.091 2104.56 312.091 C 2125.71 312.091 2142.86 329.254 2142.86 350.477 Z M 2317.53 350.477 C 2317.52 371.483 2300.24 388.765 2279.23 388.77 C 2258.03 388.77 2240.86 371.612 2240.86 350.477 C 2240.86 350.467 2240.86 350.457 2240.86 350.447 C 2240.86 329.406 2258.17 312.091 2279.21 312.091 C 2279.22 312.091 2279.22 312.091 2279.23 312.091 C 2300.38 312.091 2317.53 329.254 2317.53 350.477 Z" stroke-linecap="round"></path>
</g>
</svg>