<svg width="50" height="36" viewBox="0 0 29 36" fill="none" xmlns="http://www.w3.org/2000/svg">
									<path d="M14.9007 0.139404V2.47218H16.067V0.139404H14.9007ZM10.7133 0.964004L9.63443 1.4061L10.5209 3.56502L11.5998 3.12186L10.7133 0.964004ZM20.2544 0.964004L19.3679 3.12186L20.448 3.56502L21.3344 1.4061L20.2544 0.964004ZM25.3981 3.63507V4.80146H26.2274L19.9266 10.3814L15.9212 13.9284L13.564 11.5723L9.78256 15.3549C9.87354 15.7865 10.0217 16.1946 10.2013 16.5842L13.564 13.2216L15.8711 15.5299L20.5891 11.3518L27.1477 5.5444V6.55218H28.3141V3.63621L25.3981 3.63507ZM5.81101 3.63507L4.98638 4.46088L6.63565 6.11008L7.46028 5.28541L5.81101 3.63507ZM15.4839 5.96899C10.9816 5.96899 7.31915 9.63144 7.31915 14.1337C7.31915 18.6359 10.9816 22.2984 15.4839 22.2984C19.9861 22.2984 23.6486 18.6359 23.6486 14.1337C23.6486 12.9556 23.3943 11.8359 22.9429 10.8235L22.0179 11.6412C22.424 12.7003 22.5662 13.8424 22.4322 14.9688C22.2982 16.0951 21.892 17.172 21.2488 18.1063C20.6055 19.0406 19.7445 19.8042 18.7402 20.3314C17.7358 20.8586 16.6182 21.1333 15.4839 21.132C11.6115 21.132 8.48554 18.0061 8.48554 14.1337C8.48554 10.2613 11.6115 7.13537 15.4839 7.13537C17.2008 7.13537 18.7672 7.75003 19.9838 8.77062L20.8562 7.99849C19.3725 6.69009 17.4621 5.96841 15.4839 5.96899ZM24.2364 9.67815C25.6673 11.8701 26.243 14.5112 25.8542 17.0998L20.7279 28.2948C20.6864 28.386 20.6691 28.4865 20.6778 28.5864L21.2388 35.1239L8.41322 35.1123L7.73905 28.7216C7.72275 28.5795 7.65481 28.4484 7.54814 28.3531C7.44148 28.2579 7.30353 28.2051 7.16052 28.2049H2.57662V22.3206C2.57662 22.1659 2.51518 22.0175 2.40581 21.9081C2.29644 21.7988 2.1481 21.7374 1.99343 21.7374H0.685913L4.53149 14.0917C4.55894 14.0374 4.57782 13.9792 4.58747 13.9191C4.79745 12.5223 5.28152 11.1808 6.01182 9.97175C6.74212 8.7627 7.70425 7.70996 8.84287 6.8741C9.98149 6.03824 11.2741 5.4358 12.6464 5.10131C14.0188 4.76682 15.4437 4.70686 16.8392 4.92505C18.6779 5.20061 20.4137 5.94848 21.8768 7.09565" fill="#BCBCBC"></path>
									</svg>