<svg width="50" height="31" viewBox="0 0 27 31" fill="none" xmlns="http://www.w3.org/2000/svg">
									<path d="M25.1315 10.4543C22.6756 10.859 18.6695 10.9688 16.0079 5.91993C13.1542 0.49382 8.54442 0.329184 5.84852 0.82309C4.53829 1.06318 3.55734 2.16075 3.55734 3.22403V16.7104C4.3325 17.0054 5.16253 16.6967 5.37519 16.6555C5.43007 16.6418 5.47809 16.635 5.53982 16.6212C7.25478 16.244 9.06577 16.0656 13.5521 18.2196C19.1771 20.9155 24.1025 15.949 26.0095 12.4916C26.1467 12.2515 26.6063 11.106 26.6063 10.0084C25.9409 10.2828 25.1315 10.4543 25.1315 10.4543V10.4543ZM1.91784 0.130249H0.82027C0.518438 0.130249 0.271484 0.377202 0.271484 0.679034V30.3134C0.271484 30.6153 0.518438 30.8622 0.82027 30.8622H1.91784C2.21967 30.8622 2.46663 30.6153 2.46663 30.3134V0.679034C2.46663 0.377202 2.21967 0.130249 1.91784 0.130249Z" fill="#BCBCBC"></path>
									</svg>