<svg width="50" height="27" viewBox="0 0 35 27" fill="none" xmlns="http://www.w3.org/2000/svg">
									<path d="M26.935 15.8045C26.8626 15.4871 26.6871 15.1874 26.4099 14.9454C26.1312 14.705 25.7911 14.5601 25.4383 14.5067L19.7677 13.4094L21.4083 14.4983L18.8183 22.617L17.3599 16.5865L15.9008 22.6172L13.312 14.4985L14.9519 13.4096L9.28131 14.5069C8.92859 14.5602 8.58856 14.705 8.30961 14.9455C8.03237 15.1876 7.8567 15.4873 7.78465 15.8047L6.10339 23.1895L9.27496 24.2901C10.3278 25.3846 13.2751 26.1897 16.8101 26.2664H17.9094C21.4443 26.1899 24.3913 25.3846 25.4445 24.2901L28.6162 23.1895L26.935 15.8045Z" fill="#BCBCBC"></path>
									<path d="M17.3599 14.2342L16.0528 14.7022L17.3599 16.5867L18.6673 14.7022L17.3599 14.2342ZM22.213 6.96204C22.213 3.61034 20.8337 0.983643 17.3599 0.983643C13.8857 0.983643 12.5071 3.61052 12.5071 6.96204C12.1437 7.15161 11.9051 7.59646 12.2619 8.5498C12.4419 9.02844 12.7591 9.42954 13.0282 9.63953C14.0183 12.1045 15.9653 14.0074 17.3599 14.0074C18.7545 14.0074 20.7016 12.1045 21.6912 9.63953C21.9607 9.42954 22.2774 9.02827 22.4579 8.5498C22.8147 7.59629 22.5762 7.15161 22.213 6.96204ZM5.68648 21.5054C4.06768 21.3141 2.79164 20.8767 2.26067 20.3249L0.204224 19.6113L1.29429 14.8233C1.34113 14.6176 1.45521 14.423 1.63483 14.2664C1.81378 14.1141 2.03217 14.0154 2.26479 13.982L6.24747 13.0698C5.64823 12.5574 5.06648 11.7538 4.69437 10.8258C4.51973 10.69 4.31403 10.4299 4.1972 10.1194C3.9656 9.5016 4.12034 9.21321 4.35606 9.09003C4.35606 6.9171 5.24953 5.21406 7.50224 5.21406H7.50275C9.75495 5.21406 10.6489 6.9171 10.6489 9.09003C10.8846 9.21321 11.0394 9.5016 10.8081 10.1194C10.6911 10.4299 10.4854 10.69 10.3108 10.8258C9.93868 11.7536 9.35676 12.5572 8.75769 13.0698L10.5187 13.4733L9.14781 13.7384C8.64172 13.8173 8.1756 14.0309 7.7968 14.358C7.40308 14.702 7.13545 15.1422 7.02377 15.6315L5.68648 21.5054ZM33.4255 14.8231C33.3783 14.6174 33.2645 14.4229 33.0849 14.2662C32.9044 14.1105 32.684 14.0161 32.455 13.9818L28.4725 13.0696C29.0717 12.5572 29.6533 11.7536 30.0259 10.8257C30.2007 10.6898 30.4059 10.4297 30.5227 10.1192C30.7543 9.50142 30.5996 9.21304 30.364 9.08986C30.364 6.91693 29.4695 5.21388 27.2172 5.21388C24.9646 5.21388 24.0707 6.91693 24.0707 9.08986C23.8353 9.21304 23.6804 9.50142 23.912 10.1192C24.0285 10.4297 24.2341 10.6898 24.4088 10.8257C24.7812 11.7534 25.363 12.557 25.9622 13.0696L24.2009 13.4731L25.5718 13.7382C26.0775 13.8171 26.544 14.0307 26.9195 14.3548C27.3165 14.7016 27.5836 15.142 27.6953 15.6306L29.0328 21.5054C30.6516 21.3141 31.9276 20.8767 32.4587 20.3249L34.515 19.6113L33.4255 14.8231Z" fill="#BCBCBC"></path>
									</svg>