<svg width="50" height="32" viewBox="0 0 31 32" fill="none" xmlns="http://www.w3.org/2000/svg">
									<path d="M10.9362 9.25177C10.6591 10.1292 11.2133 11.9764 11.906 13.4542C12.5525 12.9462 13.3376 12.623 14.2151 12.623C16.0623 12.623 17.5862 14.0546 17.771 15.8556L24.7443 13.5004C24.6981 13.408 24.6519 13.3157 24.6057 13.1771L20.588 3.98717C20.5418 3.89481 20.4956 3.80245 20.4494 3.66391L11.398 8.74379C11.2595 8.78997 11.0748 8.92851 10.9362 9.25177ZM11.2133 14.1931C10.7977 13.2695 10.1511 11.7917 9.96642 10.4987L0.545559 15.3938C-0.0547906 15.6709 0.129932 16.5021 0.176113 16.7792C0.360836 17.6567 1.46917 20.5199 2.48515 20.5199C2.57751 20.5199 2.66987 20.5199 2.71605 20.4737L10.7515 17.3334C10.4744 16.3636 10.5668 15.1629 11.2133 14.1931ZM29.9165 5.23405C29.0391 3.34064 27.0995 1.12397 25.1599 1.49341C24.6057 0.662161 23.4974 0.292715 22.4814 0.754522C21.3731 1.21633 20.9113 2.50939 21.3731 3.61773L25.3908 12.8077C25.8988 13.916 27.1918 14.3778 28.254 13.916C29.2238 13.5004 29.7318 12.4382 29.5009 11.4223C30.7939 10.4987 30.9787 7.72781 29.9165 5.23405Z" fill="#BCBCBC"></path>
									<path d="M15.9699 18.2569C16.5241 17.7489 16.8935 17.0562 16.8935 16.225C16.8935 14.7472 15.6928 13.5465 14.2151 13.5465C12.7373 13.5465 11.5366 14.7472 11.5366 16.225C11.5366 17.0562 11.906 17.7489 12.4602 18.2569L5.85635 30.3563C5.71781 30.5872 5.81017 30.8643 6.04108 31.0028C6.27198 31.1414 6.54906 31.049 6.68761 30.8181L13.2914 18.7187C13.43 18.7649 13.6147 18.8111 13.7533 18.8573V30.5872C13.7533 30.8643 13.938 31.049 14.2151 31.049C14.446 31.049 14.6769 30.8643 14.6769 30.5872V18.8573C14.8616 18.8111 15.0001 18.7649 15.1849 18.7187L21.7887 30.8181C21.9272 31.049 22.2043 31.1414 22.4352 31.0028C22.6661 30.8643 22.7585 30.5872 22.62 30.4025L15.9699 18.2569ZM25.5293 18.9958C25.5293 19.2729 25.7141 19.4576 25.9911 19.4576C26.2682 19.4576 26.453 19.2729 26.453 18.9958V18.5802H26.8686C27.1457 18.5802 27.3304 18.3955 27.3304 18.1184C27.3304 17.8413 27.1457 17.6566 26.8686 17.6566H26.453V17.241C26.453 16.9639 26.2682 16.7791 25.9911 16.7791C25.7141 16.7791 25.5293 16.9639 25.5293 17.241V17.6566H25.1137C24.8366 17.6566 24.6519 17.8413 24.6519 18.1184C24.6519 18.3955 24.8366 18.5802 25.1137 18.5802H25.5293V18.9958ZM15.0001 3.0173H15.4158V3.43292C15.4158 3.71001 15.6005 3.89473 15.8776 3.89473C16.1547 3.89473 16.3394 3.71001 16.3394 3.43292V3.0173H16.755C17.0321 3.0173 17.2168 2.83257 17.2168 2.55549C17.2168 2.2784 17.0321 2.09368 16.755 2.09368H16.3394V1.67805C16.3394 1.40097 16.1547 1.21625 15.8776 1.21625C15.6005 1.21625 15.4158 1.40097 15.4158 1.67805V2.09368H15.0001C14.7231 2.09368 14.5383 2.2784 14.5383 2.55549C14.5383 2.83257 14.7692 3.0173 15.0001 3.0173ZM9.68935 4.4489H10.105V4.86452C10.105 5.14161 10.2897 5.32633 10.5668 5.32633C10.8439 5.32633 11.0286 5.14161 11.0286 4.86452V4.4489H11.4442C11.7213 4.4489 11.906 4.26417 11.906 3.98709C11.906 3.71001 11.7213 3.52528 11.4442 3.52528H11.0286V3.10966C11.0286 2.83257 10.8439 2.64785 10.5668 2.64785C10.2897 2.64785 10.105 2.83257 10.105 3.10966V3.52528H9.68935C9.41227 3.52528 9.22755 3.71001 9.22755 3.98709C9.22755 4.26417 9.41227 4.4489 9.68935 4.4489ZM5.94872 8.46662H6.36434V8.88225C6.36434 9.15933 6.54906 9.34405 6.82615 9.34405C7.10323 9.34405 7.28796 9.15933 7.28796 8.88225V8.46662H7.70358C7.98067 8.46662 8.16539 8.2819 8.16539 8.00481C8.16539 7.72773 7.98067 7.54301 7.70358 7.54301H7.28796V7.12738C7.28796 6.8503 7.10323 6.66557 6.82615 6.66557C6.54906 6.66557 6.36434 6.8503 6.36434 7.12738V7.54301H5.94872C5.67163 7.54301 5.48691 7.72773 5.48691 8.00481C5.48691 8.2819 5.71781 8.46662 5.94872 8.46662ZM22.5738 20.1042H22.1581V19.6885C22.1581 19.4115 21.9734 19.2267 21.6963 19.2267C21.4193 19.2267 21.2345 19.4115 21.2345 19.6885V20.1042H20.8189C20.5418 20.1042 20.3571 20.2889 20.3571 20.566C20.3571 20.8431 20.5418 21.0278 20.8189 21.0278H21.2345V21.4434C21.2345 21.7205 21.4193 21.9052 21.6963 21.9052C21.9734 21.9052 22.1581 21.7205 22.1581 21.4434V21.0278H22.5738C22.8509 21.0278 23.0356 20.8431 23.0356 20.566C23.0356 20.2889 22.8509 20.1042 22.5738 20.1042ZM27.6075 23.891H27.1918V23.4754C27.1918 23.1983 27.0071 23.0135 26.73 23.0135C26.453 23.0135 26.2682 23.1983 26.2682 23.4754V23.891H25.8526C25.5755 23.891 25.3908 24.0757 25.3908 24.3528C25.3908 24.6299 25.5755 24.8146 25.8526 24.8146H26.2682V25.2302C26.2682 25.5073 26.453 25.692 26.73 25.692C27.0071 25.692 27.1918 25.5073 27.1918 25.2302V24.8146H27.6075C27.8846 24.8146 28.0693 24.6299 28.0693 24.3528C28.0693 24.0757 27.8846 23.891 27.6075 23.891Z" fill="#BCBCBC"></path>
									</svg>