<svg width="50" height="32" viewBox="0 0 31 32" fill="none" xmlns="http://www.w3.org/2000/svg">
									<g clip-path="url(#clip0_46_159)">
									<path d="M27.3672 7.44775H22.7656C22.7656 3.43507 19.5127 0.182129 15.5 0.182129C11.4873 0.182129 8.23438 3.43507 8.23438 7.44775H3.63281C1.62647 7.44775 0 9.07422 0 11.0806V27.5493C0 29.5557 1.62647 31.1821 3.63281 31.1821H27.3672C29.3735 31.1821 31 29.5557 31 27.5493V11.0806C31 9.07422 29.3735 7.44775 27.3672 7.44775ZM15.5 3.81494C17.5063 3.81494 19.1328 5.44141 19.1328 7.44775H11.8672C11.8672 5.44141 13.4937 3.81494 15.5 3.81494ZM24.3398 15.9243V17.1353C24.3398 18.1385 23.5266 18.9517 22.5234 18.9517C21.5202 18.9517 20.707 18.1385 20.707 17.1353V15.9243H10.293V17.1353C10.293 18.1385 9.47976 18.9517 8.47656 18.9517C7.47336 18.9517 6.66016 18.1385 6.66016 17.1353V15.9243C5.65696 15.9243 4.84375 15.1111 4.84375 14.1079C4.84375 13.1047 5.65696 12.2915 6.66016 12.2915H24.3398C25.343 12.2915 26.1562 13.1047 26.1562 14.1079C26.1562 15.1111 25.343 15.9243 24.3398 15.9243Z" fill="#BCBCBC"></path>
									</g>
									<defs>
									<clipPath id="clip0_46_159">
									<rect width="31" height="31" fill="white" transform="translate(0 0.182129)"></rect>
									</clipPath>
									</defs>
									</svg>