<svg width="50" height="31" viewBox="0 0 35 31" fill="none" xmlns="http://www.w3.org/2000/svg">
									<path d="M22.2185 27.3207H12.7815C11.4588 27.3207 10.2792 28.1786 9.85025 29.4297C9.74301 29.7514 9.77875 30.0731 9.99323 30.3234C10.172 30.6093 10.4937 30.7523 10.8154 30.7523H24.1846C24.5063 30.7523 24.828 30.5736 25.0068 30.3234C25.1855 30.0374 25.257 29.7157 25.1498 29.4297C24.7208 28.1428 23.5769 27.3207 22.2185 27.3207ZM15.6412 8.23203H15.4267V26.6057H19.5733V8.23203H15.6412ZM33.6217 14.7021L29.5108 6.44471C30.5832 6.19448 31.3696 5.22932 31.3696 4.12118C31.3696 2.79856 30.2973 1.72617 28.9746 1.72617C28.6887 1.72617 28.3669 1.76191 28.1167 1.86915C27.652 2.04788 27.2588 2.3696 26.9728 2.79856C26.6869 3.19177 26.5796 3.65648 26.5796 4.12118V4.22842C26.6154 4.65738 26.7226 5.08634 26.9728 5.4438C27.3303 5.98 27.8307 6.30172 28.4384 6.44471L24.3633 14.7021C23.7556 14.8094 23.3267 15.3456 23.3267 15.9533C23.3267 19.0632 25.8647 21.637 29.0104 21.637C32.1203 21.6012 34.6583 19.0632 34.6583 15.9533C34.6583 15.3098 34.1936 14.8094 33.6217 14.7021ZM28.9746 6.94516L32.7995 14.6664H25.1498L28.9746 6.94516ZM11.7091 15.9533C11.7091 15.3098 11.2444 14.8094 10.6724 14.7021L6.56157 6.44471C7.16926 6.30172 7.66971 5.94425 8.02717 5.4438C8.2774 5.08634 8.42039 4.65738 8.42039 4.19267V4.12118C8.42039 3.65648 8.2774 3.19177 8.02717 2.79856C7.7412 2.3696 7.31224 2.04788 6.84754 1.86915C6.59731 1.76191 6.31134 1.72617 6.02537 1.72617C4.70275 1.72617 3.63035 2.79856 3.63035 4.12118C3.63035 5.26507 4.41678 6.23023 5.48917 6.44471L1.37832 14.7021C0.806379 14.8094 0.341675 15.3098 0.341675 15.9533C0.341675 19.0632 2.87968 21.6012 6.02537 21.6012C9.17106 21.6012 11.7091 19.0632 11.7091 15.9533ZM6.02537 6.94516L9.85025 14.6664H2.20049L6.02537 6.94516Z" fill="#BCBCBC"></path>
									<path d="M21.0389 2.61982L21.3964 5.58678H26.2579C26.0434 5.19357 25.9004 4.76461 25.8647 4.2999V4.12117C25.8647 3.58497 26.0077 3.08452 26.2579 2.61982H21.0389ZM8.7421 5.58678H13.5679L13.9253 2.61982H8.7421C8.99232 3.08452 9.13531 3.58497 9.13531 4.12117V4.26416C9.09956 4.69312 8.99232 5.15782 8.7421 5.58678ZM20.7172 5.9085L20.181 1.54742C20.1095 0.832493 19.5018 0.296295 18.7511 0.296295H16.1774C15.4624 0.296295 14.8547 0.832493 14.7475 1.54742L14.2113 5.9085C14.1756 6.30171 14.2828 6.73067 14.5688 7.01664C14.819 7.30261 15.2122 7.48134 15.6054 7.51709H19.3946C19.752 7.48134 20.1095 7.30261 20.3597 7.01664C20.6457 6.73067 20.7529 6.30171 20.7172 5.9085ZM17.4642 5.22931C16.7493 5.22931 16.1416 4.65737 16.1416 3.90669C16.1416 3.19176 16.7136 2.58407 17.4642 2.58407C18.2149 2.58407 18.7869 3.15602 18.7869 3.90669C18.7869 4.62162 18.1792 5.22931 17.4642 5.22931Z" fill="#BCBCBC"></path>
									</svg>