<svg xmlns="http://www.w3.org/2000/svg" width="106" height="78" viewBox="0 0 106 78" fill="none">
                          <g clip-path="url(#clip0_1_108)">
                            <path d="M53.0257 42.8327C52.408 42.8327 51.7387 42.7291 51.1209 42.5219L4.53035 27.9681C1.80185 27.1394 0 24.7052 0 21.8566C0 19.008 1.69888 16.5737 4.42739 15.6414L50.812 0.310757C52.0991 -0.103586 53.4891 -0.103586 54.8276 0.310757L101.573 15.6414C104.301 16.5219 106 18.9562 106 21.8048C106 24.6534 104.198 27.0876 101.47 27.9163L54.9305 42.4701C54.3128 42.7291 53.6435 42.8327 53.0257 42.8327ZM52.8198 4.14343C52.5624 4.14343 52.3565 4.19522 52.0991 4.24701L5.71442 19.5777C4.22147 20.0956 4.1185 21.4422 4.1185 21.8048C4.1185 22.2191 4.27295 23.5139 5.71442 23.9801L52.305 38.5339C52.7683 38.6892 53.2317 38.6892 53.695 38.5339L100.234 23.9801C101.727 23.5139 101.83 22.1673 101.83 21.8048C101.83 21.3904 101.727 20.0956 100.234 19.5777L53.5406 4.24701C53.3346 4.19522 53.0772 4.14343 52.8198 4.14343Z" fill="#1F1F51"></path>
                            <path d="M52.7683 78C52.3565 78 51.9446 78 51.5328 78C33.1025 77.6375 19.9748 69.1952 13.7455 64.2231C13.2822 63.8088 12.9733 63.239 12.9733 62.6175V42.0558C12.9733 41.3825 13.2822 40.761 13.8485 40.3984C14.3633 39.9841 15.084 39.8805 15.7018 40.1394L52.7683 52.6733L89.8349 40.1394C90.4527 39.9323 91.1734 40.0359 91.6882 40.3984C92.203 40.8128 92.5634 41.4343 92.5634 42.0558V62.5657C92.5634 63.1873 92.2545 63.8088 91.7912 64.1713C86.643 68.3665 72.4857 78 52.7683 78ZM17.1433 61.5299C23.2181 66.243 35.2132 73.494 51.6358 73.8048C51.9961 73.8048 52.408 73.8048 52.7683 73.8048C70.272 73.8048 83.0908 65.6733 88.4964 61.5299V44.9562L53.4891 56.7649C53.0772 56.9203 52.6139 56.9203 52.202 56.7649L17.1948 44.9562V61.5299H17.1433Z" fill="#EF5366"></path>
                            <path d="M103.941 42.8327C102.808 42.8327 101.882 41.9004 101.882 40.761V22.7371C101.882 21.5976 102.808 20.6653 103.941 20.6653C105.073 20.6653 106 21.5976 106 22.7371V40.761C106 41.9004 105.073 42.8327 103.941 42.8327Z" fill="#1F1F51"></path>
                            <path d="M103.941 51.3267C103.786 51.3267 103.683 51.3267 103.529 51.2749C103.374 51.2749 103.271 51.2231 103.117 51.1713C103.014 51.1195 102.86 51.0677 102.757 50.9641C102.654 50.8606 102.551 50.8088 102.448 50.7052C102.345 50.6016 102.242 50.498 102.19 50.3944C102.139 50.2908 102.036 50.1355 101.984 50.0319C101.933 49.8765 101.881 49.7729 101.881 49.6175C101.83 49.4622 101.83 49.3586 101.83 49.2032C101.83 49.0478 101.83 48.9442 101.881 48.7888C101.933 48.6335 101.933 48.5299 101.984 48.4263C102.036 48.2709 102.087 48.1673 102.19 48.0637C102.242 47.9602 102.345 47.8566 102.448 47.753C102.551 47.6494 102.654 47.5458 102.757 47.494C102.86 47.3904 103.014 47.3386 103.117 47.2869C103.22 47.2351 103.374 47.1833 103.529 47.1833C103.786 47.1315 104.044 47.1315 104.353 47.1833C104.507 47.2351 104.61 47.2351 104.764 47.2869C104.919 47.3386 105.022 47.3904 105.125 47.494C105.228 47.5458 105.331 47.6494 105.434 47.753C105.537 47.8566 105.64 47.9602 105.691 48.0637C105.794 48.1673 105.846 48.3227 105.897 48.4263C105.949 48.5299 106 48.6853 106 48.7888C106 48.9442 106.051 49.0478 106.051 49.2032C106.051 49.7211 105.846 50.2908 105.434 50.6534C105.331 50.757 105.228 50.8088 105.125 50.9124C105.022 50.9641 104.867 51.0677 104.764 51.1195C104.661 51.1713 104.507 51.2231 104.353 51.2231C104.198 51.3267 104.095 51.3267 103.941 51.3267Z" fill="#EF5366"></path>
                          </g>
                          <defs>
                            <clipPath id="clip0_1_108">
                              <rect width="106" height="78" fill="white"></rect>
                            </clipPath>
                          </defs>
                        </svg>