<svg xmlns="http://www.w3.org/2000/svg" width="108" height="89" viewBox="0 0 108 89" fill="none">
                          <g clip-path="url(#clip0_321_507)">
                            <path d="M71.2215 19.1534H36.8313C35.6638 19.1534 34.7085 18.1981 34.7085 17.0305V14.1116C34.7085 6.46935 40.9178 0.26001 48.5601 0.26001H59.4397C67.082 0.26001 73.2913 6.46935 73.2913 14.1116V17.0305C73.3444 18.1981 72.3891 19.1534 71.2215 19.1534ZM38.9542 14.9077H69.0987V14.1116C69.0987 8.80448 64.7468 4.50571 59.4397 4.50571H48.5601C43.253 4.50571 38.9542 8.80448 38.9542 14.1116V14.9077Z" fill="#EF5366"></path>
                            <path d="M95.9528 55.4541H84.2772C83.1096 55.4541 82.1543 54.4988 82.1543 53.3313V49.2448C82.1543 48.1303 81.2521 47.2281 80.1376 47.2281H75.5204C74.4059 47.2281 73.5037 48.1303 73.5037 49.2448V53.3313C73.5037 54.4988 72.5484 55.4541 71.3808 55.4541H36.8845C35.717 55.4541 34.7617 54.4988 34.7617 53.3313V49.2448C34.7617 48.1303 33.8595 47.2281 32.745 47.2281H28.1278C27.0133 47.2281 26.1111 48.1303 26.1111 49.2448V53.3313C26.1111 54.4988 25.1558 55.4541 23.9882 55.4541H12.0472C10.2958 55.4541 8.65061 55.0826 7.05848 54.3927C6.31548 54.0743 5.57248 53.6497 4.93563 53.119C1.85749 50.89 0 47.2811 0 43.4069V33.005C0 23.0276 8.1199 14.9077 18.0442 14.9077H89.9027C99.8801 14.9077 108 23.0276 108 33.005V43.46C108 46.7504 106.726 49.7755 104.391 52.0576C104.232 52.2168 104.02 52.4291 103.807 52.5883C101.631 54.4458 98.8717 55.4541 95.9528 55.4541ZM86.4 51.2084H95.9528C97.8103 51.2084 99.6147 50.5185 100.995 49.3509C101.154 49.2448 101.26 49.1386 101.366 49.0325C102.905 47.5465 103.701 45.5829 103.701 43.46V33.005C103.701 25.3627 97.4919 19.1534 89.8496 19.1534H18.0442C10.402 19.1534 4.2457 25.3627 4.2457 33.005V43.46C4.2457 45.9544 5.41327 48.2895 7.42998 49.7755C7.85455 50.0939 8.33219 50.3593 8.80983 50.5716C9.81818 51.0492 10.8796 51.2615 12.0472 51.2615H21.8654V49.2979C21.8654 45.8482 24.6781 43.0354 28.1278 43.0354H32.745C36.1946 43.0354 39.0074 45.8482 39.0074 49.2979V51.2084H69.258V49.2448C69.258 45.7952 72.0708 42.9824 75.5204 42.9824H80.1376C83.5872 42.9824 86.4 45.7952 86.4 49.2448V51.2084Z" fill="#1F1F51"></path>
                            <path d="M94.4137 88.6767H13.5862C7.74834 88.6767 2.97192 83.9003 2.97192 78.0625V50.7838C2.97192 50.0408 3.39649 49.2979 4.03335 48.9264C4.6702 48.5549 5.51934 48.5549 6.1562 48.9264L10.0304 51.2084H23.9351C25.1026 51.2084 26.0579 52.1637 26.0579 53.3313V57.4178C26.0579 58.5323 26.9601 59.4345 28.0746 59.4345H32.6918C33.8063 59.4345 34.7085 58.5323 34.7085 57.4178V53.3313C34.7085 52.1637 35.6638 51.2084 36.8314 51.2084H71.3277C72.4953 51.2084 73.4505 52.1637 73.4505 53.3313V57.4178C73.4505 58.5323 74.3528 59.4345 75.4673 59.4345H80.0845C81.1989 59.4345 82.1012 58.5323 82.1012 57.4178V53.3313C82.1012 52.1637 83.0564 51.2084 84.224 51.2084H98.9778L101.419 48.9264C102.056 48.3426 102.958 48.1834 103.701 48.5549C104.497 48.8733 104.975 49.6694 104.975 50.5185V78.0625C105.028 83.9003 100.252 88.6767 94.4137 88.6767ZM7.21762 54.4988V78.0625C7.21762 81.5652 10.0835 84.431 13.5862 84.431H94.4137C97.9164 84.431 100.782 81.5652 100.782 78.0625V55.2949C100.517 55.4541 100.198 55.5072 99.88 55.5072H86.3999V57.4708C86.3999 60.9205 83.5872 63.7332 80.1375 63.7332H75.5203C72.0707 63.7332 69.2579 60.9205 69.2579 57.4708V55.4541H39.0073V57.4178C39.0073 60.8674 36.1945 63.6802 32.7449 63.6802H28.1277C24.6781 63.6802 21.8653 60.8674 21.8653 57.4178V55.4541H9.44662C9.07512 55.4541 8.70362 55.348 8.38519 55.1888L7.21762 54.4988Z" fill="#1F1F51"></path>
                            <path d="M32.7448 63.6801H28.1276C24.678 63.6801 21.8652 60.8674 21.8652 57.4177V49.2978C21.8652 45.8482 24.678 43.0354 28.1276 43.0354H32.7448C36.1945 43.0354 39.0072 45.8482 39.0072 49.2978V57.4177C39.0072 60.8674 36.1945 63.6801 32.7448 63.6801ZM28.1276 47.2281C27.0131 47.2281 26.1109 48.1303 26.1109 49.2448V57.3647C26.1109 58.4792 27.0131 59.3814 28.1276 59.3814H32.7448C33.8593 59.3814 34.7615 58.4792 34.7615 57.3647V49.2978C34.7615 48.1833 33.8593 47.2811 32.7448 47.2811H28.1276V47.2281Z" fill="#EF5366"></path>
                            <path d="M80.1377 63.6801H75.5205C72.0708 63.6801 69.2581 60.8674 69.2581 57.4177V49.2978C69.2581 45.8482 72.0708 43.0354 75.5205 43.0354H80.1377C83.5873 43.0354 86.4001 45.8482 86.4001 49.2978V57.4177C86.4001 60.8674 83.5873 63.6801 80.1377 63.6801ZM75.5205 47.2281C74.406 47.2281 73.5038 48.1303 73.5038 49.2448V57.3647C73.5038 58.4792 74.406 59.3814 75.5205 59.3814H80.1377C81.2522 59.3814 82.1544 58.4792 82.1544 57.3647V49.2978C82.1544 48.1833 81.2522 47.2811 80.1377 47.2811H75.5205V47.2281Z" fill="#EF5366"></path>
                          </g>
                          <defs>
                            <clipPath id="clip0_321_507">
                              <rect width="108" height="88.4167" fill="white" transform="translate(0 0.26001)"></rect>
                            </clipPath>
                          </defs>
                        </svg>