<svg xmlns="http://www.w3.org/2000/svg" width="110" height="75" viewBox="0 0 110 75" fill="none">
                          <g clip-path="url(#clip0_1_9)">
                            <path d="M91.4125 75C89.0686 75 86.7247 74.5655 84.5443 73.6423C79.7475 71.6329 75.9863 67.6684 74.351 62.7263L68.9001 46.7053C68.8456 46.5967 68.8456 46.5967 68.8456 46.488C68.7366 46.1622 67.6464 44.2614 61.9774 44.4243H61.9229H48.132H48.0775C42.4085 44.2614 41.3183 46.1622 41.2093 46.488C41.2093 46.5967 41.2093 46.5967 41.1548 46.7053L35.7038 62.7263C34.0141 67.6684 30.3074 71.6329 25.5106 73.6423C20.8228 75.5974 15.5354 75.4888 11.0111 73.2621C10.7385 73.1535 10.466 72.9906 10.1934 72.8277C-2.67078 66.0391 0.163709 53.6568 0.490765 52.2991L5.8872 22.5923C9.53933 0.217233 28.5086 0 28.8902 0H81.1647C81.5463 0 100.461 0.217233 104.113 22.5923L109.51 52.2447C109.891 53.6568 112.726 66.0391 99.8614 72.7733C99.5889 72.9363 99.3163 73.0449 99.0438 73.2078C96.6454 74.4026 94.0289 75 91.4125 75ZM72.3342 45.6191L77.7306 61.5315C79.0933 65.496 82.0368 68.7002 85.907 70.2752C89.7227 71.8501 93.8109 71.7415 97.463 70.0036C97.681 69.895 97.9536 69.7864 98.1716 69.6235C109.074 63.8668 106.13 53.5482 106.021 53.1137C106.021 53.0594 105.966 53.0051 105.966 52.8964L100.516 23.1354C99.1528 14.8805 95.5007 9.06951 89.5591 5.86531C85.1439 3.47574 81.1647 3.47574 81.1102 3.47574H28.8902C28.127 3.47574 12.6464 3.74729 9.48482 23.0811L4.03388 52.8964C4.03388 52.9508 3.97937 53.0051 3.97937 53.1137C3.87035 53.5482 0.926841 63.8668 11.8287 69.5692C12.0468 69.6778 12.3193 69.8407 12.5373 69.9493C16.1895 71.7415 20.2777 71.7958 24.0933 70.2209C27.9635 68.5916 30.9615 65.3874 32.2698 61.4772L37.6662 45.6191C37.9387 44.5873 39.5195 40.5141 48.132 40.84H61.8139C70.4809 40.5684 72.0616 44.5873 72.3342 45.6191Z" fill="#1F1F51"></path>
                            <path d="M29.217 37.7987C21.8583 37.7987 15.8622 31.8248 15.8622 24.4931C15.8622 17.1615 21.8583 11.1875 29.217 11.1875C36.5758 11.1875 42.5719 17.1615 42.5719 24.4931C42.5719 31.8248 36.5758 37.7987 29.217 37.7987ZM29.217 15.5322C24.2567 15.5322 20.223 19.551 20.223 24.4931C20.223 29.4352 24.2567 33.454 29.217 33.454C34.1774 33.454 38.2111 29.4352 38.2111 24.4931C38.2111 19.551 34.1774 15.5322 29.217 15.5322Z" fill="#EF5366"></path>
                            <path d="M81.8732 37.7987C78.8751 37.7987 76.4222 35.3548 76.4222 32.3678V29.4895H73.5332C70.5352 29.4895 68.0823 27.0456 68.0823 24.0587C68.0823 21.0717 70.5352 18.6278 73.5332 18.6278H76.4222V15.7495C76.4222 12.7625 78.8751 10.3186 81.8732 10.3186C83.3449 10.3186 84.7076 10.8617 85.7433 11.8936C86.779 12.9254 87.3241 14.2831 87.3241 15.7495V18.6278H90.2131C93.2111 18.6278 95.664 21.0717 95.664 24.0587C95.664 25.525 95.1189 26.8827 94.0833 27.9146C93.0476 28.9464 91.6849 29.4895 90.2131 29.4895H87.3241V32.3678C87.3241 35.3548 84.8712 37.7987 81.8732 37.7987ZM73.5332 22.9725C72.9336 22.9725 72.443 23.4613 72.443 24.0587C72.443 24.656 72.9336 25.1448 73.5332 25.1448H78.6026C79.8018 25.1448 80.783 26.1224 80.783 27.3172V32.3678C80.783 32.9652 81.2736 33.454 81.8732 33.454C82.4728 33.454 82.9633 32.9652 82.9633 32.3678V27.3172C82.9633 26.1224 83.9445 25.1448 85.1437 25.1448H90.2131C90.4856 25.1448 90.7582 25.0362 90.9762 24.819C91.1943 24.6017 91.3033 24.3302 91.3033 24.0587C91.3033 23.4613 90.8127 22.9725 90.2131 22.9725H85.1437C83.9445 22.9725 82.9633 21.9949 82.9633 20.8001V15.7495C82.9633 15.4779 82.8543 15.2064 82.6363 14.9891C82.4183 14.7719 82.1457 14.6633 81.8732 14.6633C81.2736 14.6633 80.783 15.1521 80.783 15.7495V20.8001C80.783 21.9949 79.8018 22.9725 78.6026 22.9725H73.5332Z" fill="#EF5366"></path>
                          </g>
                          <defs>
                            <clipPath id="clip0_1_9">
                              <rect width="110" height="75" fill="white"></rect>
                            </clipPath>
                          </defs>
                        </svg>