<svg width="124" height="73" viewBox="0 0 124 73" fill="none" xmlns="http://www.w3.org/2000/svg">
                          <g clip-path="url(#clip0_1_167)">
                            <path d="M104.178 39C102.974 38.625 101.771 38.25 100.441 37.9375C101.771 38.25 102.974 38.625 104.178 39Z" fill="#F7B546"></path>
                            <path d="M62 50.375C45.7242 50.375 27.9285 46.5625 27.4852 38.1875C27.4219 36.8125 28.4985 35.625 29.8917 35.5625C31.285 35.5 32.4883 36.5625 32.5516 37.9375C32.6783 40.4375 43.191 45.375 62 45.375C80.809 45.375 91.3218 40.4375 91.4484 37.9375C91.5117 36.5625 92.715 35.5 94.1083 35.5625C95.5015 35.625 96.5781 36.8125 96.5148 38.1875C96.0715 46.5625 78.3391 50.375 62 50.375Z" fill="#EF5366"></path>
                            <path d="M121.91 52.25C121.91 54.1875 120.96 56.0625 119.187 57.75C120.96 56 121.91 54.1875 121.91 52.25C121.91 51.6875 121.783 51.0625 121.657 50.5C121.847 51.0625 121.91 51.6875 121.91 52.25Z" fill="#FFCC5C"></path>
                            <path d="M62 73C59.6568 73 57.5036 72.9375 55.4137 72.875C54.6537 72.875 53.8938 72.8125 53.1338 72.8125C53.0705 72.8125 53.0071 72.8125 52.9438 72.8125H52.8805C52.8172 72.8125 52.8172 72.8125 52.7538 72.8125C51.8672 72.75 51.0439 72.75 50.1573 72.6875C36.6047 71.875 24.192 69.5 15.1359 66.125C5.25638 62.375 0 57.5625 0 52.25C0 44.8125 10.3861 38.375 28.4985 34.6875L32.9316 9.5C32.9316 9.4375 32.9316 9.375 32.9316 9.375C33.4382 7.5 34.3882 5.6875 35.7181 4.1875C37.048 2.6875 38.7579 1.5625 40.5945 0.812497C42.4311 0.124997 44.4576 -0.187503 46.4842 0.0624966C48.4474 0.249997 50.4106 0.999997 52.0572 2.0625L54.5271 3.6875C56.7436 5.125 59.3401 5.9375 62.0633 5.9375C64.7232 5.9375 67.383 5.1875 69.5996 3.6875L72.0695 2.0625C73.716 0.999997 75.6793 0.249997 77.6425 0.0624966C79.6057 -0.125003 81.6323 0.124997 83.5322 0.812497C85.3687 1.5 87.0787 2.6875 88.4086 4.125C89.7385 5.625 90.6885 7.4375 91.1951 9.3125C91.1951 9.375 91.1951 9.4375 91.1951 9.4375L95.5649 34.625C97.5281 35.0625 99.3647 35.4375 101.075 35.9375C102.531 36.3125 103.798 36.6875 104.874 37C112.031 39.1875 117.287 41.875 120.517 44.9375C120.707 45.125 120.897 45.3125 121.15 45.5625C122.417 46.9375 123.303 48.375 123.747 49.8125C124 50.625 124.127 51.375 124.127 52.1875C124.127 54.625 122.987 56.9375 120.834 59.1875C112.411 67.4375 88.7886 73 62 73ZM53.3871 68.6875C54.1471 68.75 54.8437 68.75 55.5403 68.75C57.5669 68.8125 59.7201 68.875 62 68.875C87.332 68.875 110.257 63.6875 117.73 56.3125C119.124 54.9375 119.82 53.5625 119.82 52.25C119.82 51.875 119.757 51.4375 119.63 51.0625C119.377 50.25 118.807 49.3125 117.984 48.4375C117.857 48.3125 117.73 48.125 117.54 48C114.817 45.375 109.941 42.9375 103.544 41C102.468 40.6875 101.265 40.3125 99.8713 39.9375C98.0347 39.4375 96.0715 39 93.8549 38.5625H93.7916L93.095 38.375C92.2717 38.1875 91.6384 37.5625 91.5117 36.75L86.8887 10.3125C86.572 9.0625 85.9387 7.875 85.0521 6.9375C84.1655 5.9375 83.0255 5.1875 81.8223 4.6875C80.619 4.25 79.2257 4.0625 77.8958 4.1875C76.5659 4.3125 75.2993 4.8125 74.1593 5.5L71.6895 7.125C68.7763 9.0625 65.3565 10.0625 61.8733 10.0625C58.3902 10.0625 54.9704 9.0625 52.0572 7.125L49.5873 5.5C48.4474 4.75 47.2441 4.3125 45.8509 4.1875C44.5209 4.0625 43.191 4.1875 41.9244 4.6875C40.7211 5.125 39.5812 5.9375 38.6946 6.9375C37.808 7.875 37.1747 9.0625 36.858 10.3125L32.2349 36.75C32.1083 37.5625 31.475 38.1875 30.6517 38.375L30.335 38.4375H30.2717C12.1593 42 4.05312 47.9375 4.05312 52.1875C4.05312 58.75 21.4055 66.625 50.3473 68.4375C51.1706 68.5 51.9939 68.5625 52.8172 68.5625C53.1338 68.625 53.2605 68.625 53.3871 68.6875Z" fill="#1F1F51"></path>
                          </g>
                          <defs>
                            <clipPath id="clip0_1_167">
                              <rect width="124" height="73" fill="white"></rect>
                            </clipPath>
                          </defs>
                        </svg>