<svg xmlns="http://www.w3.org/2000/svg" width="115" height="102" viewBox="0 0 115 102" fill="none">
                          <g clip-path="url(#clip0_1_73)">
                            <path d="M56.3244 102C55.8019 102 55.2272 101.893 54.7569 101.68C53.3462 101.041 40.6497 95.0721 27.6397 84.0407C19.6979 77.326 13.3757 70.185 8.77783 62.8307C2.97819 53.3448 0 43.4859 0 33.4671C0 24.9404 3.08269 16.5204 8.41209 10.3386C14.264 3.67712 22.2581 0 31.0359 0C37.985 0 44.5161 2.87774 49.8455 8.31348C52.3535 10.8715 54.5479 13.9091 56.3766 17.373C58.2054 13.9091 60.3476 10.9248 62.9078 8.31348C68.1849 2.87774 74.6638 0 81.6652 0C90.443 0 98.4371 3.67712 104.237 10.3386C109.618 16.5204 112.701 24.9404 112.701 33.4671C112.701 41.6207 110.716 49.721 106.797 57.5549C106.274 58.6207 105.02 59.047 103.975 58.5141C102.93 57.9812 102.512 56.7022 103.035 55.6364C106.64 48.3887 108.469 40.9279 108.469 33.4671C108.469 25.953 105.752 18.5987 101.102 13.163C96.0859 7.40752 89.189 4.26332 81.6652 4.26332C75.8133 4.26332 70.3271 6.71473 65.8337 11.3511C62.751 14.4953 60.1908 18.4922 58.3099 23.1818C57.9964 23.9812 57.2126 24.5141 56.3766 24.5141C55.5407 24.5141 54.7569 23.9812 54.4434 23.1818C52.5625 18.4922 50.0023 14.4953 46.9196 11.3511C42.3217 6.71473 36.8355 4.26332 31.0359 4.26332C23.512 4.26332 16.5629 7.40752 11.5993 13.2163C6.89687 18.5987 4.17992 26.0063 4.17992 33.4671C4.17992 42.6865 6.89687 51.7461 12.3308 60.4859C16.6674 67.5204 22.7283 74.2884 30.3044 80.6834C42.6352 91.0752 54.9137 96.9906 56.3244 97.6301C57.4739 97.0972 65.886 93.1003 75.7088 85.8527C76.6492 85.1599 77.9555 85.373 78.6347 86.3323C79.3139 87.2915 79.105 88.6238 78.1645 89.3166C67.4534 97.1505 58.3099 101.361 57.8919 101.574C57.4216 101.893 56.8991 102 56.3244 102Z" fill="#1F1F51"></path>
                            <path d="M92.1672 96.6176C79.5752 96.6176 69.3344 86.1724 69.3344 73.3292C69.3344 60.4859 79.5752 50.0408 92.1672 50.0408C104.759 50.0408 115 60.4859 115 73.3292C115 86.1724 104.759 96.6176 92.1672 96.6176ZM92.1672 54.3041C81.8742 54.3041 73.5143 62.8307 73.5143 73.3292C73.5143 83.8276 81.8742 92.3542 92.1672 92.3542C102.46 92.3542 110.82 83.8276 110.82 73.3292C110.82 62.8307 102.46 54.3041 92.1672 54.3041Z" fill="#EF5366"></path>
                            <path d="M92.1672 82.9216C91.0178 82.9216 90.0773 81.9624 90.0773 80.79V65.8683C90.0773 64.6959 91.0178 63.7367 92.1672 63.7367C93.3167 63.7367 94.2572 64.6959 94.2572 65.8683V80.79C94.2572 81.9624 93.3167 82.9216 92.1672 82.9216Z" fill="#EF5366"></path>
                            <path d="M99.4821 75.4608H84.8523C83.7029 75.4608 82.7624 74.5016 82.7624 73.3292C82.7624 72.1567 83.7029 71.1975 84.8523 71.1975H99.4821C100.632 71.1975 101.572 72.1567 101.572 73.3292C101.572 74.5016 100.632 75.4608 99.4821 75.4608Z" fill="#EF5366"></path>
                          </g>
                          <defs>
                            <clipPath id="clip0_1_73">
                              <rect width="115" height="102" fill="white"></rect>
                            </clipPath>
                          </defs>
                        </svg>