<svg xmlns="http://www.w3.org/2000/svg" width="92" height="107" viewBox="0 0 92 107" fill="none">
                          <path d="M45.9738 106.013C45.6068 106.013 45.2399 105.908 44.9254 105.75L1.04843 80.2763C0.419373 79.9079 0 79.2237 0 78.4342V27.5921C0 26.8553 0.419373 26.1184 1.04843 25.75L44.9254 0.276316C45.5544 -0.0921053 46.3932 -0.0921053 47.0222 0.276316L90.8991 25.75C91.5282 26.1184 91.9476 26.8026 91.9476 27.5921V78.4868C91.9476 79.2237 91.5282 79.9605 90.8991 80.329L47.0222 105.75C46.7077 105.908 46.3407 106.013 45.9738 106.013ZM4.19373 77.2237L45.9738 101.434L87.7538 77.2237V28.8026L45.9738 4.59211L4.19373 28.8026V77.2237Z" fill="#1F1F51"></path>
                          <path d="M26.8923 54.8026L26.6302 48.4342V41.5921H31.1909V61.9605H27.2593L17.1943 48.9079L17.3516 55.5921V61.9605H12.7909V41.5921H16.6701L26.8923 54.8026Z" fill="#EF5366"></path>
                          <path d="M51.2684 46.9605C50.0103 45.75 48.1231 45.1711 46.498 45.1711C42.6188 45.1711 40.1026 47.3816 40.1026 51.8553C40.1026 54.75 41.6752 58.3816 46.498 58.3816C47.9134 58.3816 49.2764 58.1711 50.7966 56.9605V53.6974H45.9738V49.9079H54.7282V58.8026C52.9983 61.3289 50.2199 62.5921 46.4456 62.5921C38.6348 62.5921 35.6467 57.1711 35.6467 51.8553C35.6467 46.1184 39.0017 41.0132 46.4456 41.0132C49.2239 41.0132 51.6878 41.75 53.9943 44.1711L51.2684 46.9605Z" fill="#EF5366"></path>
                          <path d="M69.3015 62.4342C62.8012 62.4342 58.3453 58.3816 58.3453 51.75C58.3453 45.1184 62.8012 41.0658 69.3015 41.0658C75.8017 41.0658 80.2576 45.1184 80.2576 51.75C80.2576 58.3816 75.8017 62.4342 69.3015 62.4342ZM69.3015 45.1711C65.4223 45.1711 62.8012 48.0658 62.8012 51.75C62.8012 55.5395 65.4747 58.3289 69.3015 58.3289C73.2331 58.3289 75.8017 55.5395 75.8017 51.75C75.8017 48.0658 73.2331 45.1711 69.3015 45.1711Z" fill="#EF5366"></path>
                        </svg>