<svg xmlns="http://www.w3.org/2000/svg" width="102" height="76" viewBox="0 0 102 76" fill="none">
                          <g clip-path="url(#clip0_1_61)">
                            <path d="M86.1534 76H15.8466C10.9823 76 7.02065 72.0886 7.02065 67.286V16.5863C7.02065 15.4971 7.9233 14.6059 9.02655 14.6059H93.0236C94.1268 14.6059 95.0295 15.4971 95.0295 16.5863V67.286C94.9793 72.0886 91.0177 76 86.1534 76ZM11.0324 18.5668V67.286C11.0324 69.9101 13.1888 72.0391 15.8466 72.0391H86.2035C88.8614 72.0391 91.0177 69.9101 91.0177 67.286V18.5668H11.0324Z" fill="#1F1F51"></path>
                            <path d="M94.8289 18.5668H7.17109C3.20944 18.5668 0 15.398 0 11.4866V7.03062C0 3.16873 3.20944 0 7.17109 0H94.8791C98.8407 0 102.05 3.16873 102.05 7.08013V11.5362C102 15.398 98.7906 18.5668 94.8289 18.5668ZM7.17109 3.96091C5.41593 3.96091 4.0118 5.34723 4.0118 7.08013V11.5362C4.0118 13.2691 5.41593 14.6554 7.17109 14.6554H94.8791C96.6342 14.6554 98.0383 13.2691 98.0383 11.5362V7.08013C98.0383 5.34723 96.6342 3.96091 94.8791 3.96091H7.17109Z" fill="#1F1F51"></path>
                            <path d="M70.6077 41.8371H31.3923C29.3363 41.8371 27.6313 40.1537 27.6313 38.1238V30.301C27.6313 28.271 29.2861 26.5876 31.3923 26.5876H70.6077C72.6637 26.5876 74.3687 28.2215 74.3687 30.301V38.1733C74.3687 40.2033 72.6637 41.8371 70.6077 41.8371ZM31.6431 37.8762H70.3068V30.5485H31.6431V37.8762Z" fill="#EF5366"></path>
                            <path d="M83.9469 65.157H67.5487C66.4454 65.157 65.5428 64.2658 65.5428 63.1765C65.5428 62.0873 66.4454 61.1961 67.5487 61.1961H83.9469C85.0501 61.1961 85.9528 62.0873 85.9528 63.1765C85.9528 64.2658 85.0501 65.157 83.9469 65.157Z" fill="#EF5366"></path>
                          </g>
                          <defs>
                            <clipPath id="clip0_1_61">
                              <rect width="102" height="76" fill="white"></rect>
                            </clipPath>
                          </defs>
                        </svg>