<svg xmlns="http://www.w3.org/2000/svg" width="120" height="106" viewBox="0 0 120 106" fill="none">
                          <g clip-path="url(#clip0_321_503)">
                            <path d="M92.3075 105.968H85.1218C83.8964 105.968 82.8937 104.966 82.8937 103.74V70.0399H65.7929V103.74C65.7929 104.966 64.7903 105.968 63.5648 105.968H27.6921C22.5118 105.968 18.2783 101.735 18.2783 96.5545V59.2892H9.75579C6.41361 59.2892 3.29425 57.5067 1.62316 54.6102C-0.0479276 51.7136 -0.0479276 48.1486 1.56746 45.1964L15.9388 20.0744C17.6099 17.1221 20.7293 15.3396 24.1271 15.3396H32.6497V10.3821C32.6497 5.20168 36.8831 0.968262 42.0635 0.968262H77.9919C83.1722 0.968262 87.4057 5.20168 87.4057 10.3821V15.3396H95.9282C99.3261 15.3396 102.445 17.1778 104.117 20.0744L118.432 45.1964C120.103 48.0929 120.103 51.7136 118.376 54.6102C116.705 57.5067 113.586 59.2892 110.244 59.2892H101.721V96.5545C101.721 101.735 97.4879 105.968 92.3075 105.968ZM87.35 101.512H92.3075C95.037 101.512 97.2651 99.2839 97.2651 96.5545V57.0611C97.2651 55.8356 98.2677 54.833 99.4932 54.833H110.244C112.026 54.833 113.642 53.886 114.533 52.3821C115.424 50.8781 115.424 48.9842 114.533 47.4245L100.162 22.3025C99.2704 20.7428 97.655 19.7958 95.8725 19.7958H85.1218C83.8964 19.7958 82.8937 18.7932 82.8937 17.5677V10.3821C82.8937 7.65261 80.6656 5.4245 77.9362 5.4245H42.0635C39.334 5.4245 37.1059 7.65261 37.1059 10.3821V17.5677C37.1059 18.7932 36.1033 19.7958 34.8778 19.7958H24.1271C22.3446 19.7958 20.7293 20.7428 19.838 22.3025L5.46666 47.4245C4.57541 48.9285 4.57541 50.8224 5.46666 52.3821C6.35791 53.886 7.97329 54.833 9.75579 54.833H20.5064C21.7319 54.833 22.7346 55.8356 22.7346 57.0611V96.5545C22.7346 99.2839 24.9627 101.512 27.6921 101.512H61.3924V67.8118C61.3924 66.5863 62.395 65.5836 63.6205 65.5836H85.1775C86.403 65.5836 87.4057 66.5863 87.4057 67.8118V101.512H87.35Z" fill="#1F1F51"></path>
                            <path d="M52.8141 87.9762H34.8778C33.6523 87.9762 32.6497 86.9736 32.6497 85.7481V67.8118C32.6497 66.5863 33.6523 65.5836 34.8778 65.5836H52.8141C54.0396 65.5836 55.0422 66.5863 55.0422 67.8118V85.7481C55.0422 87.0293 54.0396 87.9762 52.8141 87.9762ZM37.1059 83.52H50.586V70.0399H37.1059V83.52Z" fill="#EF5366"></path>
                          </g>
                          <defs>
                            <clipPath id="clip0_321_503">
                              <rect width="119.316" height="105" fill="white" transform="translate(0.342041 0.968262)"></rect>
                            </clipPath>
                          </defs>
                        </svg>