<svg xmlns="http://www.w3.org/2000/svg" width="62" height="111" viewBox="0 0 62 111" fill="none">
                          <g clip-path="url(#clip0_1_80)">
                            <path d="M30.3024 110.134H30.2462C29.5715 110.134 28.9531 109.797 28.5034 109.235C27.9412 108.504 15.348 91.2444 24.7929 82.1931C25.1864 81.7995 25.7486 81.5747 26.3108 81.5747L34.1815 81.4622C34.7999 81.4622 35.4184 81.6871 35.8119 82.1369C37.5547 83.9359 45.4817 93.6057 32.0452 109.347C31.5392 109.853 30.9208 110.134 30.3024 110.134ZM27.2665 86.0722C23.3874 90.9071 27.8287 99.7336 30.4148 104.063C37.6671 94.2241 34.7437 88.1524 33.0571 85.9598L27.2665 86.0722Z" fill="#EF5366"></path>
                            <path d="M4.32891 99.6211C3.4294 99.6211 2.58611 99.0589 2.24879 98.2157C0.843297 94.7863 0.0562226 91.132 2.96583e-06 87.3653C-0.112436 77.6955 4.55379 68.5317 12.537 62.7973C13.1554 62.3475 13.9987 62.2351 14.6733 62.5162C15.4042 62.7973 15.9102 63.4719 16.0226 64.2028C17.0908 70.1621 18.8336 75.784 21.1386 80.9C21.3635 81.4622 21.4197 82.0806 21.1948 82.6428C20.9699 83.205 20.5764 83.6548 20.0142 83.8797C13.7738 86.6344 8.82648 91.8628 6.40904 98.1032C6.07172 99.0589 5.28465 99.6211 4.32891 99.6211ZM4.49757 87.3653C4.49757 88.7145 4.66623 90.0076 4.89111 91.3569C7.64587 86.9717 11.5812 83.3737 16.1913 80.9C14.6171 77.1333 13.3241 73.0855 12.3683 68.869C7.30855 73.6477 4.38513 80.3378 4.49757 87.3653Z" fill="#1F1F51"></path>
                            <path d="M58.9182 86.2409C57.7938 86.2409 56.838 85.3976 56.6694 84.217C56.6694 84.1045 56.6132 83.9921 56.6132 83.8797V83.8234L56.5569 83.4861C56.3883 82.2493 57.2316 81.1249 58.4684 80.9562C59.7052 80.7876 60.8296 81.6309 60.9983 82.8677L61.0545 83.1488C61.0545 83.205 61.0545 83.205 61.0545 83.2612C61.1107 83.4299 61.1107 83.6548 61.1107 83.8234C61.2232 85.0603 60.3799 86.1847 59.143 86.2971C59.0868 86.2409 58.9744 86.2409 58.9182 86.2409Z" fill="#1F1F51"></path>
                            <path d="M58.5246 83.711C57.4564 83.711 56.5569 82.9801 56.3321 81.912C56.2758 81.6309 56.2196 81.3498 56.1634 81.1249V81.0687C55.8823 79.8881 56.6132 78.6512 57.7938 78.3701C58.9744 78.089 60.2112 78.8199 60.4923 80.0005L58.2997 80.5627L60.4923 80.0567C60.5485 80.394 60.661 80.7314 60.7172 81.0687C60.9421 82.3055 60.2112 83.4861 58.9744 83.711C58.8057 83.6548 58.6371 83.711 58.5246 83.711Z" fill="#1F1F51"></path>
                            <path d="M57.85 81.1811C56.8942 81.1811 55.9947 80.5627 55.7136 79.607C55.6012 79.3259 55.545 79.0448 55.4325 78.7637C55.3201 78.5388 55.3201 78.2577 55.3201 78.0328C55.3201 77.0771 55.8823 76.2338 56.838 75.8965C58.0186 75.503 59.3117 76.1214 59.7052 77.302C59.8177 77.6393 59.9301 77.9766 60.0425 78.3139C60.0988 78.5388 60.155 78.7637 60.155 78.9886C60.155 79.9443 59.5366 80.8438 58.5808 81.1249C58.2997 81.1811 58.0749 81.1811 57.85 81.1811Z" fill="#1F1F51"></path>
                            <path d="M56.9505 78.7637C56.051 78.7637 55.2639 78.2577 54.8703 77.3582L54.7579 77.0771C54.7017 76.9084 54.6455 76.7398 54.533 76.5711C54.4206 76.29 54.3082 75.9527 54.3082 75.6154C54.3082 74.7721 54.8141 73.9288 55.6012 73.5915C56.7256 73.0855 58.0749 73.5915 58.5808 74.7159C58.6933 74.9407 58.8057 75.1656 58.8619 75.3905L58.9744 75.6154C59.4804 76.7398 58.9182 78.089 57.7938 78.5388C57.5689 78.7075 57.2878 78.7637 56.9505 78.7637Z" fill="#1F1F51"></path>
                            <path d="M55.9947 96.3042C55.2077 96.3042 54.4206 95.8544 54.0271 95.1236L53.9708 95.0112C53.9146 94.8987 53.8584 94.7863 53.746 94.6176C53.5211 94.2803 53.4649 93.8868 53.4649 93.4932C53.4649 92.7062 53.8584 91.9753 54.5893 91.5255C55.6574 90.9071 57.0629 91.3007 57.6813 92.3688C57.7938 92.5375 57.85 92.7062 57.9624 92.8186L58.0186 92.8748C58.6371 93.943 58.1873 95.3485 57.1191 95.9107C56.7818 96.1918 56.3883 96.3042 55.9947 96.3042Z" fill="#1F1F51"></path>
                            <path d="M46.9996 66.564C46.5498 66.564 46.1001 66.4516 45.7065 66.1705L45.5941 66.058C44.9757 65.6645 44.6384 64.9337 44.6384 64.2028C44.6384 63.3595 45.0881 62.6286 45.819 62.2351C46.5498 61.8416 47.4494 61.8978 48.124 62.3476C48.1802 62.4038 48.2364 62.4038 48.2926 62.46C49.3046 63.1908 49.5857 64.5963 48.8548 65.6083C48.4051 66.2267 47.7305 66.564 46.9996 66.564Z" fill="#1F1F51"></path>
                            <path d="M49.7544 88.5459C49.2484 88.5459 48.6862 88.3772 48.2926 87.9837L48.124 87.815C47.1683 87.028 47.0558 85.6225 47.8429 84.6667C48.63 83.711 50.0355 83.5986 50.9912 84.3856L51.2161 84.5543C51.722 85.0041 52.0031 85.6225 52.0031 86.2409C52.0031 86.7469 51.8345 87.3091 51.4409 87.7026C51.0474 88.321 50.3728 88.5459 49.7544 88.5459Z" fill="#1F1F51"></path>
                            <path d="M52.1718 90.9071C51.5534 90.9071 50.935 90.6822 50.4852 90.1763L50.3166 89.9514C49.923 89.5016 49.6981 88.9957 49.6981 88.4335C49.6981 87.815 49.923 87.2528 50.429 86.8031C51.3285 85.9598 52.734 86.016 53.6335 86.9155C53.6897 86.9717 53.746 87.028 53.8022 87.0842L53.8584 87.1404C54.7017 88.0399 54.6455 89.5016 53.6897 90.2887C53.24 90.7385 52.734 90.9071 52.1718 90.9071Z" fill="#1F1F51"></path>
                            <path d="M44.3011 84.8916C43.9637 84.8916 43.6264 84.8354 43.2891 84.6667H43.2329C42.4458 84.2732 41.9961 83.4861 41.9961 82.6428C41.9961 82.3055 42.0523 81.9682 42.2209 81.6309C42.7831 80.5065 44.1324 80.0567 45.2006 80.6189H45.2568C46.0439 81.0125 46.4936 81.7995 46.4936 82.6428C46.4936 82.9802 46.4374 83.3175 46.2688 83.6548C45.8752 84.4419 45.1444 84.8916 44.3011 84.8916Z" fill="#1F1F51"></path>
                            <path d="M54.1395 93.3245C53.4649 93.3245 52.734 92.9872 52.3405 92.3688L52.1718 92.1439C51.8907 91.7504 51.722 91.2444 51.722 90.7947C51.722 90.12 52.0594 89.4454 52.6216 88.9956C53.6335 88.2648 55.039 88.4334 55.7699 89.4454L55.8261 89.5016C55.8823 89.5578 55.9385 89.6141 55.9947 89.7265C56.2758 90.12 56.4445 90.5698 56.4445 91.0195C56.4445 91.6942 56.1072 92.425 55.4888 92.8186C55.0952 93.2121 54.5892 93.3245 54.1395 93.3245Z" fill="#1F1F51"></path>
                            <path d="M49.1359 68.1382C48.63 68.1382 48.124 67.9695 47.6742 67.6322L47.5056 67.5198C47.3369 67.4073 47.1683 67.2387 47.0558 67.1262C46.9996 67.07 46.9434 67.07 46.9434 67.0138C45.9314 66.2829 45.7628 64.8212 46.5498 63.8655C47.2807 62.8535 48.7424 62.6849 49.6981 63.4719C49.7544 63.5282 49.8106 63.5282 49.8668 63.5844C50.0917 63.753 50.2603 63.9217 50.4852 64.0904L50.5977 64.2028C51.5534 64.9899 51.6658 66.3954 50.8788 67.3511C50.3728 67.8571 49.7544 68.1382 49.1359 68.1382Z" fill="#1F1F51"></path>
                            <path d="M50.9912 69.8248C50.429 69.8248 49.8668 69.5999 49.417 69.1501C49.1922 68.9252 48.9673 68.7004 48.6862 68.4755C47.7867 67.6322 47.7305 66.2267 48.5737 65.271C49.417 64.3714 50.8225 64.3152 51.7783 65.1585C52.0594 65.4396 52.3405 65.7207 52.6216 65.9456C53.0713 66.3954 53.2962 66.9576 53.2962 67.5197C53.2962 68.0819 53.0713 68.6441 52.6216 69.0939C52.1156 69.5999 51.5534 69.8248 50.9912 69.8248Z" fill="#1F1F51"></path>
                            <path d="M54.1957 73.6477C53.4649 73.6477 52.7902 73.3104 52.3405 72.692C52.228 72.5795 52.1718 72.4671 52.0594 72.2984C52.0032 72.186 51.8907 72.1298 51.8345 72.0173C51.1036 71.0054 51.2723 69.5999 52.2843 68.869C53.2962 68.1382 54.7017 68.3068 55.4325 69.3188L55.6012 69.5437C55.7699 69.7123 55.8823 69.881 55.9947 70.1059C56.7256 71.1178 56.4445 72.5233 55.4325 73.2542C55.039 73.479 54.5893 73.6477 54.1957 73.6477Z" fill="#1F1F51"></path>
                            <path d="M52.6778 71.68C52.0594 71.68 51.3847 71.3989 50.935 70.8929C50.7663 70.6681 50.5414 70.4432 50.3728 70.2745L50.3166 70.1621C49.4733 69.2626 49.5295 67.8009 50.4852 67.0138C51.3847 66.1705 52.8464 66.2267 53.6335 67.1824L53.6897 67.2387C53.9146 67.5198 54.1395 67.7446 54.3644 68.0257C54.7017 68.4755 54.8703 68.9815 54.8703 69.4874C54.8703 70.1059 54.5892 70.7805 54.0833 71.2302C53.6897 71.5113 53.1838 71.68 52.6778 71.68Z" fill="#1F1F51"></path>
                            <path d="M55.7699 76.1776C54.9828 76.1776 54.1957 75.7278 53.8022 74.997C53.746 74.9407 53.746 74.8283 53.6897 74.7721C53.6897 74.7721 53.6897 74.7159 53.6335 74.7159C53.5773 74.6596 53.5773 74.6034 53.5211 74.5472C52.9027 73.479 53.2962 72.0735 54.3644 71.4551C55.4325 70.8367 56.838 71.2302 57.4564 72.2984C57.5127 72.4109 57.6251 72.5795 57.6813 72.692V72.7482C57.6813 72.8044 57.7375 72.8044 57.7375 72.8606C58.356 73.9288 57.9062 75.3343 56.838 75.8965C56.5007 76.1214 56.1072 76.1776 55.7699 76.1776Z" fill="#1F1F51"></path>
                            <path d="M57.2878 98.9465C56.3883 98.9465 55.545 98.3843 55.2077 97.541C54.8703 96.8102 54.533 96.0231 54.027 95.1236L53.9708 95.0674C53.9146 94.9549 53.8022 94.7863 53.746 94.6738C53.24 93.8305 52.7902 93.0997 52.2842 92.425L52.1156 92.2002C51.6096 91.5255 51.0474 90.8509 50.429 90.1763L50.2603 89.9514C49.6419 89.2767 48.9673 88.6021 48.2364 87.9837L48.0678 87.8713C46.5498 86.5782 44.9195 85.51 43.2329 84.6105C43.1767 84.6105 43.1767 84.5543 43.1204 84.5543C42.5582 84.2732 41.9398 83.9921 41.2652 83.7672L41.1528 83.711C40.5906 83.4861 40.1408 83.0364 39.9159 82.4742C39.691 81.912 39.691 81.2936 39.9159 80.7314C42.1085 75.5592 43.6826 69.881 44.5822 63.8655C44.6946 63.0784 45.2006 62.46 45.9314 62.1227C46.6623 61.8416 47.4494 61.8978 48.124 62.3475L48.2927 62.46C48.7424 62.7411 49.1922 63.0784 49.6419 63.4157C49.923 63.6406 50.2041 63.8655 50.429 64.0904L50.5414 64.2028C50.9912 64.5963 51.3847 64.8774 51.6658 65.2147C51.9469 65.4958 52.228 65.7769 52.5091 66.058C52.8464 66.3954 53.1838 66.7327 53.5773 67.1824L53.6897 67.2949C53.9146 67.5198 54.1395 67.8008 54.3644 68.0819C54.7017 68.4755 55.039 68.9252 55.4325 69.4312L55.6012 69.6561C55.7136 69.8248 55.8823 69.9934 55.9947 70.2183C56.5007 70.9491 57.0067 71.68 57.4002 72.4109C57.4564 72.5233 57.5689 72.692 57.6251 72.8044C57.6251 72.8606 57.6813 72.9168 57.7375 72.9731C58.1311 73.6477 58.4122 74.2661 58.6933 74.8283C58.8057 75.0532 58.8619 75.2781 58.9744 75.5029L59.0868 75.7278C59.3679 76.3462 59.5366 76.8522 59.7052 77.3582C59.8177 77.6955 59.9301 78.0328 60.0426 78.3701C60.2112 78.9323 60.3799 79.4383 60.4923 80.0567C60.6047 80.4503 60.661 80.7876 60.7172 81.0687C60.8296 81.6309 60.9421 82.1931 61.0545 82.9239L61.1107 83.205C61.1669 83.4299 61.1669 83.6548 61.2232 83.8234C61.3356 84.8354 61.3918 85.7911 61.3918 86.6344C61.448 90.4011 60.7734 94.0554 59.4804 97.541C59.0868 98.3281 58.2435 98.9465 57.2878 98.9465C57.2878 98.9465 57.344 98.9465 57.2878 98.9465ZM45.313 80.6189C47.3369 81.6871 49.2484 82.9239 50.9912 84.4419L51.1598 84.6105C52.0031 85.3414 52.7902 86.0722 53.5211 86.9155C53.5773 86.9717 53.6335 87.028 53.6897 87.0842L53.746 87.1404C54.4206 87.9275 55.0952 88.7145 55.7136 89.5016L55.7699 89.5578C55.8261 89.6141 55.8823 89.6703 55.8823 89.7265C56.1072 90.0076 56.2758 90.2887 56.5007 90.626C56.6694 89.333 56.7818 87.9837 56.7818 86.6344C56.7818 85.9036 56.7256 85.1165 56.6132 84.217C56.6132 84.0483 56.5569 83.9359 56.5569 83.7672L56.5007 83.4299C56.3883 82.8115 56.3321 82.3055 56.2196 81.8558C56.1634 81.5747 56.1072 81.2936 56.051 81.0125C55.9385 80.4503 55.7699 80.0005 55.6574 79.5507C55.545 79.2697 55.4888 78.9886 55.3763 78.7075C55.2077 78.3139 55.039 77.8642 54.8703 77.3582L54.7579 77.0771C54.7017 76.9084 54.6455 76.7398 54.533 76.5711C54.3081 76.1214 54.0833 75.6154 53.746 74.997C53.6897 74.8845 53.6335 74.7721 53.5773 74.7159C53.5211 74.6596 53.5211 74.6034 53.4649 74.5472C53.1275 73.9288 52.734 73.3104 52.2842 72.692C52.1718 72.5795 52.1156 72.4671 52.0031 72.2984C51.9469 72.186 51.8345 72.0735 51.7783 72.0173C51.4409 71.5676 51.1598 71.2302 50.8788 70.8929C50.7101 70.668 50.4852 70.4432 50.3166 70.2745L50.2603 70.1621C49.9792 69.8248 49.6981 69.5437 49.3608 69.2063C49.1359 68.9815 48.8548 68.7566 48.63 68.5317C48.5737 68.4755 48.5175 68.4193 48.4613 68.363C47.618 72.6357 46.4374 76.6835 44.9757 80.5065C45.0881 80.5627 45.1444 80.6189 45.2568 80.6751C45.313 80.6189 45.313 80.6189 45.313 80.6189Z" fill="#1F1F51"></path>
                            <path d="M17.2594 25.4113C17.0346 25.4113 16.7535 25.355 16.5286 25.2988C15.348 24.9053 14.7295 23.6122 15.1231 22.4316C15.2355 22.1505 15.2917 21.8694 15.4042 21.6445C15.5166 21.3072 15.6853 21.0261 15.9664 20.8013C16.8659 19.9017 18.2714 19.9017 19.1709 20.8013C19.7893 21.4197 19.958 22.3754 19.6769 23.1625C19.6769 23.1625 19.6769 23.1625 19.6769 23.2187C19.5644 23.4436 19.5082 23.7247 19.3958 23.9495C19.0585 24.7928 18.1589 25.4113 17.2594 25.4113Z" fill="#1F1F51"></path>
                            <path d="M19.6206 23.1063L17.4843 22.3754L15.4042 21.5321C15.5166 21.3072 15.5728 21.0824 15.6853 20.8013C18.4963 13.4927 23.6122 5.79062 28.8969 0.730855L28.9531 0.674635C29.8526 -0.224878 31.2581 -0.224878 32.1576 0.674635C33.0571 1.57415 33.0571 2.97964 32.1576 3.87915L32.1014 3.93537C32.1014 3.93537 32.1014 3.93537 32.0452 3.93537C27.2665 8.48916 22.4878 15.7415 19.9017 22.3754C19.7893 22.6565 19.7331 22.8814 19.6206 23.1063Z" fill="#1F1F51"></path>
                            <path d="M17.8216 23.8371C17.5405 23.8371 17.3156 23.7809 17.0345 23.6685C15.8539 23.2187 15.2917 21.9256 15.6853 20.8013C18.6649 12.7618 22.9376 6.07172 27.9974 1.51793L28.9531 0.618414C29.0093 0.562195 29.0093 0.562195 29.0655 0.562195C29.9651 -0.281099 31.4268 -0.22488 32.2138 0.730854C33.0571 1.63037 33.0009 3.09208 32.0452 3.93537V3.99159L31.989 4.04781L31.0332 4.8911C26.4794 8.93892 22.6565 15.0106 19.9017 22.3754C19.5644 23.2749 18.7211 23.8371 17.8216 23.8371Z" fill="#1F1F51"></path>
                            <path d="M39.9159 86.9155C39.691 86.9155 39.4662 86.8593 39.1851 86.8031C38.904 86.6906 38.5667 86.6344 38.2856 86.522L37.9482 86.4095C37.0487 86.1847 35.6432 85.8474 34.1815 85.5663C32.7198 85.2852 31.4268 85.1165 30.5273 85.0041C28.6158 85.1727 24.9053 85.9036 23.05 86.4095L22.7127 86.522C22.3754 86.5782 22.0943 86.6906 21.8132 86.8031C21.1948 87.028 20.5764 86.9155 20.0142 86.6344C19.2271 86.5782 18.4963 86.1285 18.1027 85.3414C17.653 84.4419 17.2594 83.5423 16.8097 82.4742C14.4484 76.9647 12.8181 70.8929 11.8623 64.5401V64.4839C11.1877 59.8739 10.8504 55.1514 10.9066 50.429C10.6817 40.6468 12.1434 30.977 15.0669 22.4878C15.4604 21.3072 16.7534 20.6888 17.8778 21.0824C18.7211 21.3635 19.2833 22.0943 19.3958 22.9376C22.7689 22.6003 26.4794 22.4878 30.4148 22.4878C34.3502 22.4316 38.0045 22.6003 41.3776 22.9376C41.4901 22.0943 42.0523 21.3635 42.8956 21.0824C44.0762 20.6888 45.313 21.3072 45.7066 22.4878C48.63 30.977 50.0917 40.703 49.9792 50.4852C50.0355 55.2077 49.6981 59.9301 49.0235 64.5401V64.5963C48.0678 71.0054 46.3812 77.0209 44.0762 82.5304C43.6264 83.5986 43.2329 84.4981 42.7831 85.3976C42.3896 86.1284 41.6587 86.6344 40.8717 86.6906C40.6468 86.8593 40.2532 86.9155 39.9159 86.9155ZM30.4148 80.5627C30.471 80.5627 30.5273 80.5627 30.5835 80.5627C31.989 80.6751 33.9004 81.0125 34.8562 81.1811C36.4865 81.4622 38.0045 81.7995 39.0164 82.0806L39.1289 82.1369C39.1851 82.0806 39.2975 82.0806 39.3537 82.0806C39.5224 81.6871 39.691 81.2373 39.9159 80.7876C42.1085 75.6154 43.6826 69.9934 44.5822 63.9779V63.9217C45.2568 59.5366 45.5379 55.039 45.4817 50.4852V50.429C45.5941 42.502 44.5822 34.6313 42.5582 27.5476C38.904 27.0979 34.7999 26.9292 30.3586 26.9854C25.861 26.9292 21.757 27.1541 18.1027 27.5476C16.0788 34.6313 15.1231 42.502 15.1793 50.429C15.1231 54.9828 15.4042 59.4804 16.0788 63.8655V63.9217C16.9783 69.881 18.5525 75.5592 20.745 80.7314C20.9699 81.1811 21.1386 81.6309 21.3072 82.0244C21.3635 82.0244 21.4759 82.0806 21.5321 82.0806L21.6446 82.0244C23.7809 81.406 27.9974 80.6752 30.0775 80.4503C30.3024 80.5627 30.3586 80.5627 30.4148 80.5627Z" fill="#1F1F51"></path>
                            <path d="M32.5512 6.57769C31.989 6.57769 31.3705 6.35281 30.977 5.90306C30.6397 5.56574 30.3024 5.22842 29.9088 4.8911C29.8526 4.83488 29.7964 4.83488 29.7964 4.77866L28.8969 3.87915L28.8407 3.82293C28.3909 3.37317 28.2223 2.69854 28.2785 2.08012C28.3347 1.46171 28.672 0.843291 29.178 0.505973C29.8526 -3.3962e-06 30.7521 -0.056223 31.5392 0.281095C31.7079 0.393534 31.8765 0.505973 32.0452 0.618412C32.7198 1.23683 33.4507 1.96768 34.2378 2.81098C35.081 3.71049 35.0248 5.11598 34.1253 5.95928C33.6756 6.40903 33.1134 6.57769 32.5512 6.57769Z" fill="#1F1F51"></path>
                            <path d="M43.2891 24.3431C42.3896 24.3431 41.4901 23.7809 41.1528 22.8814C38.904 16.8097 35.081 10.4568 30.977 5.95928C30.1337 5.05976 30.1899 3.65427 31.0894 2.81098C31.989 1.96768 33.3945 1.96768 34.2377 2.8672C38.7915 7.42098 42.6707 13.83 45.4254 21.3634C45.8752 22.5441 45.2568 23.8371 44.0762 24.2306C43.7951 24.3431 43.514 24.3431 43.2891 24.3431Z" fill="#1F1F51"></path>
                            <path d="M30.4148 48.7424C28.2785 48.7424 26.3108 47.9553 24.7928 46.4936C23.2187 45.0319 22.3754 43.008 22.3192 40.8717C22.3192 36.4865 25.861 32.8323 30.3586 32.776C32.4949 32.776 34.5751 33.5631 36.093 35.0248C37.6671 36.4865 38.5104 38.5104 38.5667 40.6468C38.6229 45.0319 35.0248 48.6862 30.5835 48.7424C30.5272 48.7424 30.471 48.7424 30.4148 48.7424ZM30.471 37.2736C30.4148 37.2736 30.4148 37.2736 30.471 37.2736C28.4471 37.2736 26.873 38.904 26.873 40.8154C26.873 41.7149 27.2665 42.6145 27.9411 43.2329C28.6158 43.8513 29.5153 44.2448 30.471 44.2448H30.5272C32.4949 44.2448 34.0691 42.6145 34.0691 40.703C34.0691 39.8035 33.6755 38.904 33.0009 38.2856C32.2701 37.6671 31.3705 37.2736 30.471 37.2736Z" fill="#EF5366"></path>
                          </g>
                          <defs>
                            <clipPath id="clip0_1_80">
                              <rect width="61.3356" height="110.134" fill="white"></rect>
                            </clipPath>
                          </defs>
                        </svg>