<svg xmlns="http://www.w3.org/2000/svg" width="45" height="45" viewBox="0 0 45 45" fill="none">
                                            <path d="M22.5 45C34.9264 45 45 34.9264 45 22.5C45 10.0736 34.9264 0 22.5 0C10.0736 0 0 10.0736 0 22.5C0 34.9264 10.0736 45 22.5 45Z" fill="#ef5366"></path>
                                            <path fill-rule="evenodd" clip-rule="evenodd" d="M40.25 12.83C43.37 18.55 43.53 25.48 40.65 31.33C38.6 35.5 35.49 38.61 31.32 40.66C25.47 43.53 18.54 43.38 12.82 40.26C1.59 34.13 -1.2 19.28 7.05 9.45001C10.35 5.51001 15.37 2.87001 20.43 2.38001C28.63 1.61001 36.34 5.67001 40.25 12.83ZM20.84 3.79001C18.05 4.04001 14.99 5.06001 12.71 6.49001C7.42 9.83001 4.24 15.06 3.76 21.2C3.47 24.98 4.49 29.13 6.48 32.28C9.82 37.57 15.05 40.75 21.2 41.23C24.97 41.52 29.12 40.5 32.27 38.51C37.53 35.19 40.73 29.97 41.22 23.86C41.52 20.09 40.55 16.06 38.56 12.82C35.58 7.96001 30.75 4.73001 25.22 3.92001C24.02 3.74001 21.99 3.68001 20.84 3.79001Z" fill="white"></path>
                                            <path d="M22.5 4.57001C22.76 4.57001 22.88 4.62001 23.02 4.80001C23.2 5.02001 23.2 5.15001 23.2 6.74001C23.2 7.68001 23.16 8.52001 23.11 8.60001C22.97 8.87001 22.54 9.00001 22.23 8.87001C22.08 8.81001 21.92 8.69001 21.88 8.60001C21.83 8.51001 21.79 7.68001 21.79 6.74001C21.79 5.15001 21.8 5.02001 21.97 4.80001C22.11 4.62001 22.22 4.57001 22.49 4.57001H22.5Z" fill="white"></path>
                                            <path d="M14.24 6.94001C14.47 7.06001 14.94 7.92001 14.94 8.22001C14.94 8.80001 14.13 9.11001 13.74 8.67001C13.48 8.39001 13.19 7.77001 13.19 7.51001C13.19 7.39001 13.29 7.18001 13.41 7.07001C13.63 6.84001 13.96 6.79001 14.24 6.94001Z" fill="white"></path>
                                            <path d="M31.82 7.50999C31.82 7.76999 31.53 8.38999 31.27 8.66999C30.88 9.09999 30.07 8.79999 30.07 8.22999C30.07 7.93999 30.53 7.06999 30.76 6.93999C31.19 6.68999 31.83 7.03999 31.83 7.50999H31.82Z" fill="white"></path>
                                            <path fill-rule="evenodd" clip-rule="evenodd" d="M23.01 11.54L23.2 11.72V20.36L23.66 20.66C25.58 21.93 24.64 24.83 22.36 24.69C21.65 24.65 21.08 24.3 20.65 23.67L20.35 23.21H17.56C14.88 23.21 14.77 23.2 14.55 23.03C14.37 22.89 14.32 22.78 14.32 22.51C14.32 22.25 14.37 22.13 14.55 21.99C14.78 21.81 14.88 21.81 17.57 21.81H20.36L20.63 21.37C20.81 21.09 21.07 20.83 21.35 20.65L21.79 20.38V11.73L21.99 11.55C22.1 11.45 22.24 11.35 22.32 11.32C22.51 11.25 22.78 11.34 23.01 11.55V11.54ZM22.48 21.71C22.23 21.72 21.9 21.98 21.79 22.24C21.64 22.61 21.83 23.04 22.22 23.21C22.81 23.46 23.44 22.83 23.2 22.24C23.14 22.09 22.98 21.91 22.84 21.84C22.71 21.77 22.54 21.71 22.48 21.71Z" fill="white"></path>
                                            <path d="M8.59999 13.68C8.82999 13.85 8.87999 13.95 8.87999 14.21C8.87999 14.62 8.59999 14.94 8.23999 14.94C7.92999 14.94 7.06999 14.47 6.94999 14.24C6.79999 13.96 6.84999 13.62 7.07999 13.41C7.41999 13.07 7.86999 13.15 8.59999 13.69V13.68Z" fill="white"></path>
                                            <path d="M37.92 13.4C38.15 13.62 38.2 13.95 38.05 14.23C37.93 14.46 37.07 14.93 36.77 14.93C36.41 14.93 36.12 14.61 36.12 14.23C36.12 13.87 36.23 13.75 36.82 13.4C37.32 13.11 37.65 13.11 37.92 13.39V13.4Z" fill="white"></path>
                                            <path d="M6.73999 21.8C7.67999 21.8 8.51999 21.84 8.59999 21.89C8.68999 21.93 8.80999 22.09 8.86999 22.24C8.99999 22.55 8.86999 22.98 8.59999 23.12C8.50999 23.17 7.67999 23.21 6.73999 23.21C5.14999 23.21 5.01999 23.2 4.79999 23.03C4.46999 22.78 4.46999 22.25 4.79999 21.99C5.01999 21.81 5.14999 21.81 6.73999 21.81V21.8Z" fill="white"></path>
                                            <path d="M38.24 21.8C39.86 21.8 39.98 21.81 40.2 21.98C40.38 22.12 40.43 22.23 40.43 22.5C40.43 22.76 40.38 22.88 40.2 23.02C39.98 23.2 39.85 23.2 38.26 23.2C37.32 23.2 36.48 23.16 36.4 23.11C36.13 22.97 36 22.54 36.13 22.23C36.19 22.08 36.31 21.92 36.38 21.88C36.46 21.84 37.29 21.79 38.24 21.79V21.8Z" fill="white"></path>
                                            <path d="M8.88 30.53C8.94 30.71 8.94 30.84 8.85 31C8.72 31.29 7.87 31.81 7.53 31.81C7.02 31.81 6.67 31.13 6.97 30.72C7.03 30.64 7.28 30.46 7.51 30.32C8.19 29.92 8.66 29.99 8.87 30.53H8.88Z" fill="white"></path>
                                            <path d="M36.77 30.06C37.07 30.06 37.93 30.53 38.05 30.76C38.29 31.21 37.95 31.81 37.46 31.81C37.12 31.81 36.27 31.29 36.14 31C36.01 30.74 36.1 30.36 36.36 30.17C36.44 30.1 36.62 30.05 36.76 30.05L36.77 30.06Z" fill="white"></path>
                                            <path d="M22.48 36.04C22.67 36.04 23.09 36.29 23.15 36.44C23.18 36.52 23.2 37.35 23.2 38.28C23.2 39.86 23.19 39.99 23.02 40.21C22.77 40.54 22.24 40.54 21.98 40.21C21.8 39.99 21.8 39.86 21.8 38.25C21.8 36.45 21.82 36.35 22.2 36.15C22.3 36.1 22.43 36.04 22.49 36.04H22.48Z" fill="white"></path>
                                            <path d="M31.18 36.24C31.4 36.42 31.81 37.22 31.81 37.47C31.81 37.78 31.46 38.15 31.15 38.15C30.79 38.15 30.61 38.01 30.32 37.5C29.92 36.81 29.98 36.34 30.5 36.14C30.73 36.05 30.98 36.1 31.18 36.25V36.24Z" fill="white"></path>
                                            <path d="M14.94 36.81C14.94 37.08 14.46 37.94 14.24 38.06C13.8 38.3 13.19 37.96 13.19 37.49C13.19 37.21 13.49 36.61 13.76 36.34C14.2 35.9 14.95 36.21 14.95 36.81H14.94Z" fill="white"></path>
                                            </svg>