<svg xmlns="http://www.w3.org/2000/svg" width="45" height="45" viewBox="0 0 45 45" fill="none">
                                            <path d="M44 22.5C44 34.3741 34.3741 44 22.5 44C10.6259 44 1 34.3741 1 22.5C1 10.6259 10.6259 1 22.5 1C34.3741 1 44 10.6259 44 22.5Z" stroke="#ef5366" stroke-width="2"></path>
                                            <g opacity="0.2">
                                            <path opacity="0.2" d="M38 32.75C38 34.4 36.65 35.75 35 35.75H11C9.35 35.75 8 34.4 8 32.75V17.75C8 16.1 9.35 14.75 11 14.75H35C36.65 14.75 38 16.1 38 17.75V32.75Z" fill="#ef5366"></path>
                                            </g>
                                            <path d="M27.5 11V26H18.5V11H27.5ZM27.5 8H18.5C16.85 8 15.5 9.35 15.5 11V26C15.5 27.65 16.85 29 18.5 29H27.5C29.15 29 30.5 27.65 30.5 26V11C30.5 9.35 29.15 8 27.5 8Z" fill="#ef5366"></path>
                                            <path d="M8 20V31.25C8 32.9 9.35 34.25 11 34.25H35C36.65 34.25 38 32.9 38 31.25V20H8Z" fill="#ef5366"></path>
                                            <path d="M38 18.4444C38 17.1 36.65 16 35 16H11C9.35 16 8 17.1 8 18.4444V21.5H38V18.4444Z" fill="#ef5366"></path>
                                            <g opacity="0.2">
                                            <g opacity="0.2">
                                            <path opacity="0.2" d="M29 23C29 24.65 27.65 26 26 26H20C18.35 26 17 24.65 17 23V20.75C17 19.1 18.35 17.75 20 17.75H26C27.65 17.75 29 19.1 29 20.75V23Z" fill="#ff6f6f"></path>
                                            </g>
                                            </g>
                                            <path d="M26 19.25V21.5H20V19.25H26ZM26 16.25H20C18.35 16.25 17 17.6 17 19.25V21.5C17 23.15 18.35 24.5 20 24.5H26C27.65 24.5 29 23.15 29 21.5V19.25C29 17.6 27.65 16.25 26 16.25Z" fill="white"></path>
                                            <path d="M38 16.25C38 14.6 36.65 13.25 35 13.25H11C9.35 13.25 8 14.6 8 16.25V20H38V16.25Z" fill="#ef5366"></path>
                                            </svg>