<svg xmlns="http://www.w3.org/2000/svg" width="45" height="45" viewBox="0 0 45 45" fill="none">
                                            <path d="M22.5 45C10.0934 45 0 34.9066 0 22.5C0 10.0934 10.0934 0 22.5 0C34.9066 0 45 10.0934 45 22.5C45 34.9066 34.9066 45 22.5 45ZM22.5 1.88613C11.1331 1.88613 1.88613 11.1331 1.88613 22.5C1.88613 33.8669 11.1331 43.1139 22.5 43.1139C33.8669 43.1139 43.1139 33.8669 43.1139 22.5C43.1139 11.1331 33.866 1.88613 22.5 1.88613Z" fill="#ef5366"></path>
                                            <path d="M18.152 14.9511C18.152 14.0911 18.4071 13.2505 18.8848 12.5355C19.3626 11.8205 20.0416 11.2632 20.8361 10.9341C21.6306 10.605 22.5048 10.5189 23.3482 10.6867C24.1917 10.8544 24.9664 11.2685 25.5745 11.8766C26.1825 12.4847 26.5966 13.2594 26.7644 14.1028C26.9322 14.9462 26.8461 15.8205 26.517 16.615C26.1879 17.4094 25.6306 18.0885 24.9156 18.5663C24.2006 19.044 23.3599 19.299 22.5 19.299C21.3469 19.2988 20.2411 18.8406 19.4258 18.0253C18.6104 17.2099 18.1523 16.1041 18.152 14.9511ZM24.8265 19.9969L22.5 23.0985L20.1744 19.9969C18.8059 20.4963 17.6247 21.4058 16.792 22.6012C15.9593 23.7966 15.5157 25.2197 15.5215 26.6766V34.3969H29.4794V26.6766C29.4849 25.2199 29.0411 23.797 28.2084 22.6018C27.3758 21.4066 26.1948 20.4973 24.8265 19.9978V19.9969ZM22.921 20.4108C23.1094 20.1916 23.2066 19.9085 23.1926 19.6198C22.9711 19.5987 22.747 19.5873 22.5202 19.5873C22.2935 19.5873 22.0808 19.5987 21.8645 19.6189C21.8645 19.6189 21.8303 20.0883 22.1212 20.4214C22.1212 20.4179 22.6556 20.4284 22.921 20.4117V20.4108ZM22.5123 22.6336L23.2699 21.7547L22.9104 20.5427H22.1133L21.7248 21.7547L22.5123 22.6336ZM30.5103 21.2273C30.6522 21.0618 30.7252 20.8483 30.7143 20.6306C30.5481 20.6147 30.3803 20.6068 30.2098 20.6068C30.0393 20.6068 29.8793 20.6147 29.7176 20.6306C29.7081 20.8476 29.7767 21.0609 29.9109 21.2317C29.9109 21.2317 30.3144 21.2432 30.5139 21.2309L30.5103 21.2273ZM30.2036 22.8973L30.7731 22.2354L30.5033 21.3258H29.9048L29.6191 22.2363L30.2036 22.8973ZM30.1939 20.3959C30.8392 20.3959 31.47 20.2046 32.0065 19.8461C32.543 19.4876 32.9612 18.978 33.2081 18.3819C33.455 17.7858 33.5196 17.1298 33.3938 16.4969C33.2679 15.8641 32.9571 15.2827 32.5009 14.8265C32.0446 14.3702 31.4633 14.0595 30.8304 13.9336C30.1976 13.8077 29.5416 13.8723 28.9454 14.1192C28.3493 14.3662 27.8398 14.7843 27.4813 15.3208C27.1228 15.8574 26.9314 16.4881 26.9314 17.1334C26.9314 17.5621 27.0159 17.9867 27.1801 18.3827C27.3443 18.7788 27.5849 19.1386 27.8882 19.4416C28.1916 19.7446 28.5516 19.9848 28.9479 20.1486C29.3441 20.3123 29.7687 20.3964 30.1975 20.3959H30.1939ZM16.5428 20.9232L14.8017 23.2471L13.0562 20.918C12.0299 21.2928 11.1441 21.975 10.5196 22.8714C9.89503 23.7679 9.56205 24.8352 9.56601 25.9277V34.3934H14.872V26.6766C14.87 25.6566 15.0692 24.6463 15.4581 23.7034C15.8471 22.7605 16.4181 21.9036 17.1387 21.1816C16.9471 21.0818 16.7495 20.9937 16.5472 20.918L16.5428 20.9232ZM14.7981 20.3959C15.4434 20.3959 16.0742 20.2046 16.6107 19.8461C17.1472 19.4876 17.5654 18.978 17.8123 18.3819C18.0592 17.7858 18.1238 17.1298 17.998 16.4969C17.8721 15.8641 17.5613 15.2827 17.1051 14.8265C16.6488 14.3702 16.0675 14.0595 15.4346 13.9336C14.8018 13.8077 14.1458 13.8723 13.5496 14.1192C12.9535 14.3662 12.444 14.7843 12.0855 15.3208C11.727 15.8574 11.5356 16.4881 11.5356 17.1334C11.5358 17.5622 11.6204 17.9867 11.7846 18.3828C11.9489 18.7788 12.1896 19.1386 12.493 19.4416C12.7964 19.7446 13.1565 19.9848 13.5528 20.1486C13.9491 20.3123 14.3738 20.3964 14.8025 20.3959H14.7981ZM15.1137 21.23C15.2555 21.0645 15.3285 20.8509 15.3176 20.6332C15.1512 20.6174 14.9833 20.6095 14.814 20.6095C14.6446 20.6095 14.4806 20.6171 14.3218 20.6323C14.3121 20.8498 14.3803 21.0636 14.5143 21.2353C14.5143 21.2353 14.9186 21.2432 15.1172 21.2309L15.1137 21.23ZM31.9438 20.918L30.1975 23.2471L28.452 20.918C28.2493 20.9936 28.0514 21.0817 27.8596 21.1816C28.5806 21.9038 29.152 22.7611 29.5411 23.7045C29.9302 24.6479 30.1294 25.6587 30.1271 26.6792V30.1685C30.15 30.1685 30.1043 34.3995 30.1271 34.3995H35.4234L35.4331 25.9339C35.4383 24.8404 35.106 23.7719 34.4815 22.8743C33.8571 21.9766 32.9709 21.2934 31.9438 20.918ZM14.8113 22.8981L15.3809 22.2363L15.111 21.3267H14.5125L14.2216 22.2363L14.8113 22.8981Z" fill="#ef5366"></path>
                                            </svg>